M48
; DRILL file {KiCad 7.0.11-2.fc39} date Sat 27 Apr 2024 07:46:51 PM CEST
; FORMAT={-:-/ absolute / inch / decimal}
; #@! TF.CreationDate,2024-04-27T19:46:51+02:00
; #@! TF.GenerationSoftware,Kicad,Pcbnew,7.0.11-2.fc39
; #@! TF.FileFunction,Plated,1,2,PTH
FMAT,2
INCH
; #@! TA.AperFunction,Plated,PTH,ViaDrill
T1C0.0118
; #@! TA.AperFunction,Plated,PTH,ComponentDrill
T2C0.0236
; #@! TA.AperFunction,Plated,PTH,ComponentDrill
T3C0.0394
; #@! TA.AperFunction,Plated,PTH,ComponentDrill
T4C0.0433
; #@! TA.AperFunction,Plated,PTH,ComponentDrill
T5C0.0472
%
G90
G05
T1
X4.8Y-2.9
X5.025Y-4.225
X5.175Y-3.775
X5.3Y-4.95
X5.325Y-2.925
X5.425Y-3.975
X5.575Y-3.675
X5.6Y-4.1
X5.975Y-3.1
X5.975Y-3.325
X6.05Y-2.675
X6.05Y-2.725
X6.075Y-3.675
X6.25Y-5.15
X6.4Y-4.15
X6.525Y-4.825
X6.55Y-3.7
X6.625Y-3.95
X6.725Y-4.95
X6.85Y-3.025
X6.85Y-3.325
X6.975Y-2.8
T3
X4.9844Y-5.275
X4.9845Y-2.8797
X4.9845Y-3.4703
X5.2797Y-3.0845
X5.2797Y-3.3845
X5.3Y-3.675
X5.3Y-3.775
X5.3Y-3.875
X5.3Y-3.975
X5.5655Y-4.2797
X5.5655Y-4.8703
X5.575Y-5.275
X5.8703Y-3.0845
X5.8703Y-3.3845
X6.1797Y-3.0845
X6.1844Y-3.3845
X6.2797Y-5.2655
X6.3655Y-4.2797
X6.3655Y-4.8703
X6.75Y-2.675
X6.75Y-2.775
X6.7703Y-3.0845
X6.775Y-3.3845
X6.775Y-3.675
X6.775Y-3.775
X6.775Y-3.875
X6.775Y-3.975
X6.8703Y-5.2655
X7.0845Y-2.8797
X7.0845Y-3.4703
T4
X5.6411Y-3.7313
X5.7081Y-3.877
X5.775Y-3.7313
X5.8419Y-3.877
X5.9089Y-3.7313
X6.1411Y-3.7313
X6.2081Y-3.877
X6.275Y-3.7313
X6.3419Y-3.877
X6.4089Y-3.7313
T5
X4.675Y-4.325
X4.675Y-4.825
X4.775Y-3.6
X4.775Y-4.1
X4.875Y-2.45
X4.975Y-4.325
X4.975Y-4.825
X5.05Y-2.725
X5.275Y-4.325
X5.275Y-4.825
X5.375Y-2.45
X5.55Y-2.725
X6.675Y-4.325
X6.675Y-4.825
X6.975Y-4.325
X6.975Y-4.825
X7.275Y-3.625
X7.275Y-4.125
X7.275Y-4.325
X7.275Y-4.825
T2
G00X6.0549Y-2.4553
M15
G01X6.0549Y-2.4317
M16
G05
G00X6.0549Y-2.6049
M15
G01X6.0549Y-2.5813
M16
G05
G00X6.3951Y-2.4553
M15
G01X6.3951Y-2.4317
M16
G05
G00X6.3951Y-2.6049
M15
G01X6.3951Y-2.5813
M16
G05
M30
