%TF.GenerationSoftware,KiCad,Pcbnew,7.0.11-2.fc39*%
%TF.CreationDate,2024-04-27T19:47:06+02:00*%
%TF.ProjectId,tda2050-devboard,74646132-3035-4302-9d64-6576626f6172,rev?*%
%TF.SameCoordinates,Original*%
%TF.FileFunction,Soldermask,Top*%
%TF.FilePolarity,Negative*%
%FSLAX46Y46*%
G04 Gerber Fmt 4.6, Leading zero omitted, Abs format (unit mm)*
G04 Created by KiCad (PCBNEW 7.0.11-2.fc39) date 2024-04-27 19:47:06*
%MOMM*%
%LPD*%
G01*
G04 APERTURE LIST*
G04 Aperture macros list*
%AMRoundRect*
0 Rectangle with rounded corners*
0 $1 Rounding radius*
0 $2 $3 $4 $5 $6 $7 $8 $9 X,Y pos of 4 corners*
0 Add a 4 corners polygon primitive as box body*
4,1,4,$2,$3,$4,$5,$6,$7,$8,$9,$2,$3,0*
0 Add four circle primitives for the rounded corners*
1,1,$1+$1,$2,$3*
1,1,$1+$1,$4,$5*
1,1,$1+$1,$6,$7*
1,1,$1+$1,$8,$9*
0 Add four rect primitives between the rounded corners*
20,1,$1+$1,$2,$3,$4,$5,0*
20,1,$1+$1,$4,$5,$6,$7,0*
20,1,$1+$1,$6,$7,$8,$9,0*
20,1,$1+$1,$8,$9,$2,$3,0*%
G04 Aperture macros list end*
%ADD10RoundRect,0.175000X0.175000X0.425000X-0.175000X0.425000X-0.175000X-0.425000X0.175000X-0.425000X0*%
%ADD11RoundRect,0.190000X-0.190000X-0.410000X0.190000X-0.410000X0.190000X0.410000X-0.190000X0.410000X0*%
%ADD12RoundRect,0.200000X-0.200000X-0.400000X0.200000X-0.400000X0.200000X0.400000X-0.200000X0.400000X0*%
%ADD13RoundRect,0.175000X-0.175000X-0.425000X0.175000X-0.425000X0.175000X0.425000X-0.175000X0.425000X0*%
%ADD14RoundRect,0.190000X0.190000X0.410000X-0.190000X0.410000X-0.190000X-0.410000X0.190000X-0.410000X0*%
%ADD15RoundRect,0.200000X0.200000X0.400000X-0.200000X0.400000X-0.200000X-0.400000X0.200000X-0.400000X0*%
%ADD16O,1.100000X1.700000*%
%ADD17C,3.200000*%
%ADD18O,1.800000X1.800000*%
%ADD19R,1.800000X1.800000*%
%ADD20C,2.400000*%
%ADD21O,2.400000X2.400000*%
%ADD22C,1.700000*%
%ADD23R,2.800000X2.200000*%
%ADD24R,2.800000X2.800000*%
%ADD25R,2.800000X2.600000*%
%ADD26R,1.700000X1.700000*%
%ADD27O,1.700000X1.700000*%
%ADD28O,2.000000X2.000000*%
%ADD29R,2.000000X2.000000*%
G04 APERTURE END LIST*
D10*
%TO.C,J5*%
X158615000Y-65945000D03*
D11*
X156595000Y-65945000D03*
D12*
X155365000Y-65945000D03*
D13*
X157615000Y-65945000D03*
D14*
X159635000Y-65945000D03*
D15*
X160865000Y-65945000D03*
D16*
X162435000Y-65865000D03*
X162435000Y-62065000D03*
X153795000Y-65865000D03*
X153795000Y-62065000D03*
%TD*%
D17*
%TO.C,H4*%
X184785000Y-133985000D03*
%TD*%
%TO.C,H3*%
X185420000Y-65405000D03*
%TD*%
%TO.C,H2*%
X116205000Y-65405000D03*
%TD*%
%TO.C,H1*%
X116205000Y-133985000D03*
%TD*%
D18*
%TO.C,U2*%
X155985000Y-94775000D03*
X157685000Y-98475000D03*
X159385000Y-94775000D03*
X161085000Y-98475000D03*
D19*
X162785000Y-94775000D03*
%TD*%
D18*
%TO.C,U1*%
X143285000Y-94775000D03*
X144985000Y-98475000D03*
X146685000Y-94775000D03*
X148385000Y-98475000D03*
D19*
X150085000Y-94775000D03*
%TD*%
D20*
%TO.C,R10-22k*%
X140970000Y-69215000D03*
D21*
X128270000Y-69215000D03*
%TD*%
D20*
%TO.C,R9-22k*%
X136525000Y-62230000D03*
D21*
X123825000Y-62230000D03*
%TD*%
D20*
%TO.C,R8-2.2*%
X184785000Y-104775000D03*
D21*
X184785000Y-92075000D03*
%TD*%
%TO.C,R7-22k*%
X184785000Y-109855000D03*
D20*
X184785000Y-122555000D03*
%TD*%
D21*
%TO.C,R6-680*%
X177165000Y-122555000D03*
D20*
X177165000Y-109855000D03*
%TD*%
D21*
%TO.C,R5-22k*%
X169545000Y-122555000D03*
D20*
X169545000Y-109855000D03*
%TD*%
%TO.C,R4-22k*%
X133985000Y-109855000D03*
D21*
X133985000Y-122555000D03*
%TD*%
D20*
%TO.C,R3-680*%
X126365000Y-109855000D03*
D21*
X126365000Y-122555000D03*
%TD*%
%TO.C,R2-22k*%
X118745000Y-109855000D03*
D20*
X118745000Y-122555000D03*
%TD*%
%TO.C,R1-2.2*%
X121285000Y-104140000D03*
D21*
X121285000Y-91440000D03*
%TD*%
D22*
%TO.C,J4*%
X151130000Y-130135000D03*
X151130000Y-123135000D03*
D23*
X147430000Y-129235000D03*
X154830000Y-131235000D03*
D24*
X154830000Y-121835000D03*
D25*
X150380000Y-117835000D03*
%TD*%
D26*
%TO.C,J3*%
X172085000Y-93345000D03*
D27*
X172085000Y-95885000D03*
X172085000Y-98425000D03*
X172085000Y-100965000D03*
%TD*%
%TO.C,J2*%
X171450000Y-67945000D03*
D26*
X171450000Y-70485000D03*
%TD*%
%TO.C,J1*%
X134620000Y-93345000D03*
D27*
X134620000Y-95885000D03*
X134620000Y-98425000D03*
X134620000Y-100965000D03*
%TD*%
D28*
%TO.C,C14-0.47u*%
X179947500Y-73145000D03*
D29*
X179947500Y-88145000D03*
%TD*%
D28*
%TO.C,C9-22u*%
X159505000Y-133742500D03*
D29*
X174505000Y-133742500D03*
%TD*%
%TO.C,C8-100n*%
X134105000Y-85967500D03*
D28*
X149105000Y-85967500D03*
%TD*%
%TO.C,C7-0.47u*%
X126607500Y-73145000D03*
D29*
X126607500Y-88145000D03*
%TD*%
%TO.C,C6-1u*%
X161682500Y-108705000D03*
D28*
X161682500Y-123705000D03*
%TD*%
D29*
%TO.C,C5-220u*%
X134105000Y-78347500D03*
D28*
X149105000Y-78347500D03*
%TD*%
%TO.C,C4-22u*%
X141605000Y-133985000D03*
D29*
X126605000Y-133985000D03*
%TD*%
D28*
%TO.C,C3-1u*%
X141362500Y-123705000D03*
D29*
X141362500Y-108705000D03*
%TD*%
%TO.C,C2-100n*%
X156965000Y-78347500D03*
D28*
X171965000Y-78347500D03*
%TD*%
%TO.C,C1-220u*%
X172085000Y-85967500D03*
D29*
X157085000Y-85967500D03*
%TD*%
M02*
