%TF.GenerationSoftware,KiCad,Pcbnew,7.0.11-2.fc39*%
%TF.CreationDate,2024-04-27T19:47:06+02:00*%
%TF.ProjectId,tda2050-devboard,74646132-3035-4302-9d64-6576626f6172,rev?*%
%TF.SameCoordinates,Original*%
%TF.FileFunction,Copper,L2,Bot*%
%TF.FilePolarity,Positive*%
%FSLAX46Y46*%
G04 Gerber Fmt 4.6, Leading zero omitted, Abs format (unit mm)*
G04 Created by KiCad (PCBNEW 7.0.11-2.fc39) date 2024-04-27 19:47:06*
%MOMM*%
%LPD*%
G01*
G04 APERTURE LIST*
%TA.AperFunction,ComponentPad*%
%ADD10O,1.100000X1.700000*%
%TD*%
%TA.AperFunction,ComponentPad*%
%ADD11O,1.800000X1.800000*%
%TD*%
%TA.AperFunction,ComponentPad*%
%ADD12R,1.800000X1.800000*%
%TD*%
%TA.AperFunction,ComponentPad*%
%ADD13C,2.400000*%
%TD*%
%TA.AperFunction,ComponentPad*%
%ADD14O,2.400000X2.400000*%
%TD*%
%TA.AperFunction,ComponentPad*%
%ADD15R,1.700000X1.700000*%
%TD*%
%TA.AperFunction,ComponentPad*%
%ADD16O,1.700000X1.700000*%
%TD*%
%TA.AperFunction,ComponentPad*%
%ADD17O,2.000000X2.000000*%
%TD*%
%TA.AperFunction,ComponentPad*%
%ADD18R,2.000000X2.000000*%
%TD*%
%TA.AperFunction,ViaPad*%
%ADD19C,0.700000*%
%TD*%
%TA.AperFunction,Conductor*%
%ADD20C,0.500000*%
%TD*%
G04 APERTURE END LIST*
D10*
%TO.P,J5,S1,SHIELD*%
%TO.N,unconnected-(J5-SHIELD-PadS1)*%
X162435000Y-65865000D03*
X162435000Y-62065000D03*
X153795000Y-65865000D03*
X153795000Y-62065000D03*
%TD*%
D11*
%TO.P,U2,5,+Vs*%
%TO.N,/VS+*%
X155985000Y-94775000D03*
%TO.P,U2,4*%
%TO.N,/SPEAKER_LEFT+*%
X157685000Y-98475000D03*
%TO.P,U2,3,-Vs*%
%TO.N,/VS-*%
X159385000Y-94775000D03*
%TO.P,U2,2,-*%
%TO.N,Net-(U2--)*%
X161085000Y-98475000D03*
D12*
%TO.P,U2,1,+*%
%TO.N,Net-(U2-+)*%
X162785000Y-94775000D03*
%TD*%
D11*
%TO.P,U1,5,+Vs*%
%TO.N,/VS+*%
X143285000Y-94775000D03*
%TO.P,U1,4*%
%TO.N,/SPEAKER_RIGHT+*%
X144985000Y-98475000D03*
%TO.P,U1,3,-Vs*%
%TO.N,/VS-*%
X146685000Y-94775000D03*
%TO.P,U1,2,-*%
%TO.N,Net-(U1--)*%
X148385000Y-98475000D03*
D12*
%TO.P,U1,1,+*%
%TO.N,Net-(U1-+)*%
X150085000Y-94775000D03*
%TD*%
D13*
%TO.P,R10-22k,1*%
%TO.N,Net-(J5-CC1)*%
X140970000Y-69215000D03*
D14*
%TO.P,R10-22k,2*%
%TO.N,/VS-*%
X128270000Y-69215000D03*
%TD*%
D13*
%TO.P,R9-22k,1*%
%TO.N,Net-(J5-CC2)*%
X136525000Y-62230000D03*
D14*
%TO.P,R9-22k,2*%
%TO.N,/VS-*%
X123825000Y-62230000D03*
%TD*%
D13*
%TO.P,R8-2.2,1*%
%TO.N,/SPEAKER_LEFT+*%
X184785000Y-104775000D03*
D14*
%TO.P,R8-2.2,2*%
%TO.N,Net-(C14-Pad1)*%
X184785000Y-92075000D03*
%TD*%
%TO.P,R7-22k,2*%
%TO.N,/SPEAKER_LEFT+*%
X184785000Y-109855000D03*
D13*
%TO.P,R7-22k,1*%
%TO.N,Net-(U2--)*%
X184785000Y-122555000D03*
%TD*%
D14*
%TO.P,R6-680,2*%
%TO.N,Net-(C9-Pad1)*%
X177165000Y-122555000D03*
D13*
%TO.P,R6-680,1*%
%TO.N,Net-(U2--)*%
X177165000Y-109855000D03*
%TD*%
D14*
%TO.P,R5-22k,2*%
%TO.N,GND*%
X169545000Y-122555000D03*
D13*
%TO.P,R5-22k,1*%
%TO.N,Net-(U2-+)*%
X169545000Y-109855000D03*
%TD*%
%TO.P,R4-22k,1*%
%TO.N,Net-(U1-+)*%
X133985000Y-109855000D03*
D14*
%TO.P,R4-22k,2*%
%TO.N,GND*%
X133985000Y-122555000D03*
%TD*%
D13*
%TO.P,R3-680,1*%
%TO.N,Net-(U1--)*%
X126365000Y-109855000D03*
D14*
%TO.P,R3-680,2*%
%TO.N,Net-(C4-Pad1)*%
X126365000Y-122555000D03*
%TD*%
%TO.P,R2-22k,2*%
%TO.N,/SPEAKER_RIGHT+*%
X118745000Y-109855000D03*
D13*
%TO.P,R2-22k,1*%
%TO.N,Net-(U1--)*%
X118745000Y-122555000D03*
%TD*%
%TO.P,R1-2.2,1*%
%TO.N,/SPEAKER_RIGHT+*%
X121285000Y-104140000D03*
D14*
%TO.P,R1-2.2,2*%
%TO.N,Net-(C7-Pad1)*%
X121285000Y-91440000D03*
%TD*%
D15*
%TO.P,J3,1,Pin_1*%
%TO.N,/SPEAKER_LEFT+*%
X172085000Y-93345000D03*
D16*
%TO.P,J3,2,Pin_2*%
%TO.N,GND*%
X172085000Y-95885000D03*
%TO.P,J3,3,Pin_3*%
%TO.N,/IN_LEFT*%
X172085000Y-98425000D03*
%TO.P,J3,4,Pin_4*%
%TO.N,GND*%
X172085000Y-100965000D03*
%TD*%
%TO.P,J2,2,Pin_2*%
%TO.N,/VS-*%
X171450000Y-67945000D03*
D15*
%TO.P,J2,1,Pin_1*%
%TO.N,/VS+*%
X171450000Y-70485000D03*
%TD*%
%TO.P,J1,1,Pin_1*%
%TO.N,/SPEAKER_RIGHT+*%
X134620000Y-93345000D03*
D16*
%TO.P,J1,2,Pin_2*%
%TO.N,GND*%
X134620000Y-95885000D03*
%TO.P,J1,3,Pin_3*%
%TO.N,/IN_RIGHT*%
X134620000Y-98425000D03*
%TO.P,J1,4,Pin_4*%
%TO.N,GND*%
X134620000Y-100965000D03*
%TD*%
D17*
%TO.P,C14-0.47u,2*%
%TO.N,GND*%
X179947500Y-73145000D03*
D18*
%TO.P,C14-0.47u,1*%
%TO.N,Net-(C14-Pad1)*%
X179947500Y-88145000D03*
%TD*%
D17*
%TO.P,C9-22u,2*%
%TO.N,GND*%
X159505000Y-133742500D03*
D18*
%TO.P,C9-22u,1*%
%TO.N,Net-(C9-Pad1)*%
X174505000Y-133742500D03*
%TD*%
%TO.P,C8-100n,1*%
%TO.N,/VS-*%
X134105000Y-85967500D03*
D17*
%TO.P,C8-100n,2*%
%TO.N,GND*%
X149105000Y-85967500D03*
%TD*%
%TO.P,C7-0.47u,2*%
%TO.N,GND*%
X126607500Y-73145000D03*
D18*
%TO.P,C7-0.47u,1*%
%TO.N,Net-(C7-Pad1)*%
X126607500Y-88145000D03*
%TD*%
%TO.P,C6-1u,1*%
%TO.N,Net-(U2-+)*%
X161682500Y-108705000D03*
D17*
%TO.P,C6-1u,2*%
%TO.N,/IN_LEFT*%
X161682500Y-123705000D03*
%TD*%
D18*
%TO.P,C5-220u,1*%
%TO.N,/VS-*%
X134105000Y-78347500D03*
D17*
%TO.P,C5-220u,2*%
%TO.N,GND*%
X149105000Y-78347500D03*
%TD*%
%TO.P,C4-22u,2*%
%TO.N,GND*%
X141605000Y-133985000D03*
D18*
%TO.P,C4-22u,1*%
%TO.N,Net-(C4-Pad1)*%
X126605000Y-133985000D03*
%TD*%
D17*
%TO.P,C3-1u,2*%
%TO.N,/IN_RIGHT*%
X141362500Y-123705000D03*
D18*
%TO.P,C3-1u,1*%
%TO.N,Net-(U1-+)*%
X141362500Y-108705000D03*
%TD*%
%TO.P,C2-100n,1*%
%TO.N,/VS+*%
X156965000Y-78347500D03*
D17*
%TO.P,C2-100n,2*%
%TO.N,GND*%
X171965000Y-78347500D03*
%TD*%
%TO.P,C1-220u,2*%
%TO.N,GND*%
X172085000Y-85967500D03*
D18*
%TO.P,C1-220u,1*%
%TO.N,/VS+*%
X157085000Y-85967500D03*
%TD*%
D19*
%TO.N,Net-(U2-+)*%
X166370000Y-93980000D03*
X162560000Y-105410000D03*
%TO.N,/IN_LEFT*%
X165735000Y-122555000D03*
X168275000Y-100330000D03*
%TO.N,/VS+*%
X154305000Y-93345000D03*
X141605000Y-93345000D03*
%TO.N,GND*%
X177165000Y-71120000D03*
X173990000Y-84455000D03*
X173990000Y-76835000D03*
X151765000Y-84455000D03*
X151765000Y-78740000D03*
X121920000Y-73660000D03*
%TO.N,/VS-*%
X135255000Y-74295000D03*
%TO.N,GND*%
X137795000Y-100965000D03*
X131445000Y-95885000D03*
X158750000Y-130810000D03*
X170815000Y-125730000D03*
X134620000Y-125730000D03*
%TO.N,Net-(U1--)*%
X142240000Y-104140000D03*
X127635000Y-107315000D03*
%TO.N,/VS+*%
X153670000Y-69215000D03*
%TO.N,/VS-*%
X153670000Y-67945000D03*
%TD*%
D20*
%TO.N,Net-(U2-+)*%
X166370000Y-98425000D02*
X166370000Y-93980000D01*
X162560000Y-102235000D02*
X166370000Y-98425000D01*
X162560000Y-105410000D02*
X162560000Y-102235000D01*
%TO.N,/VS+*%
X141605000Y-93345000D02*
X144780000Y-90170000D01*
X144780000Y-90170000D02*
X151130000Y-90170000D01*
X151130000Y-90170000D02*
X154305000Y-93345000D01*
%TO.N,/IN_LEFT*%
X165735000Y-102870000D02*
X165735000Y-122555000D01*
X168275000Y-100330000D02*
X165735000Y-102870000D01*
%TO.N,/VS-*%
X142875000Y-74295000D02*
X149225000Y-67945000D01*
X135255000Y-74295000D02*
X142875000Y-74295000D01*
X149225000Y-67945000D02*
X153670000Y-67945000D01*
%TO.N,Net-(U1--)*%
X133283478Y-104140000D02*
X142240000Y-104140000D01*
X127635000Y-107315000D02*
X130108478Y-107315000D01*
X130108478Y-107315000D02*
X133283478Y-104140000D01*
%TO.N,/VS+*%
X153670000Y-69215000D02*
X154940000Y-70485000D01*
X154940000Y-70485000D02*
X171450000Y-70485000D01*
%TO.N,/VS-*%
X153670000Y-67945000D02*
X171450000Y-67945000D01*
%TD*%
%TA.AperFunction,Conductor*%
%TO.N,GND*%
G36*
X191847539Y-58940185D02*
G01*
X191893294Y-58992989D01*
X191904500Y-59044500D01*
X191904500Y-138440500D01*
X191884815Y-138507539D01*
X191832011Y-138553294D01*
X191780500Y-138564500D01*
X111749500Y-138564500D01*
X111682461Y-138544815D01*
X111636706Y-138492011D01*
X111625500Y-138440500D01*
X111625500Y-134052763D01*
X114350787Y-134052763D01*
X114380413Y-134322013D01*
X114380415Y-134322024D01*
X114420073Y-134473716D01*
X114448928Y-134584088D01*
X114554870Y-134833390D01*
X114676608Y-135032864D01*
X114695979Y-135064605D01*
X114695986Y-135064615D01*
X114869253Y-135272819D01*
X114869259Y-135272824D01*
X115070998Y-135453582D01*
X115296910Y-135603044D01*
X115542176Y-135718020D01*
X115542183Y-135718022D01*
X115542185Y-135718023D01*
X115801557Y-135796057D01*
X115801564Y-135796058D01*
X115801569Y-135796060D01*
X116069561Y-135835500D01*
X116069566Y-135835500D01*
X116272629Y-135835500D01*
X116272631Y-135835500D01*
X116272636Y-135835499D01*
X116272648Y-135835499D01*
X116310191Y-135832750D01*
X116475156Y-135820677D01*
X116587758Y-135795593D01*
X116739546Y-135761782D01*
X116739548Y-135761781D01*
X116739553Y-135761780D01*
X116992558Y-135665014D01*
X117228777Y-135532441D01*
X117443177Y-135366888D01*
X117631186Y-135171881D01*
X117730640Y-135032870D01*
X125104500Y-135032870D01*
X125104501Y-135032876D01*
X125110908Y-135092483D01*
X125161202Y-135227328D01*
X125161206Y-135227335D01*
X125247452Y-135342544D01*
X125247455Y-135342547D01*
X125362664Y-135428793D01*
X125362671Y-135428797D01*
X125497517Y-135479091D01*
X125497516Y-135479091D01*
X125504444Y-135479835D01*
X125557127Y-135485500D01*
X127652872Y-135485499D01*
X127712483Y-135479091D01*
X127847331Y-135428796D01*
X127962546Y-135342546D01*
X128048796Y-135227331D01*
X128099091Y-135092483D01*
X128105500Y-135032873D01*
X128105500Y-134235000D01*
X140120960Y-134235000D01*
X140181411Y-134473716D01*
X140281267Y-134701367D01*
X140417232Y-134909478D01*
X140585592Y-135092364D01*
X140585602Y-135092373D01*
X140781762Y-135245051D01*
X140781771Y-135245057D01*
X141000385Y-135363364D01*
X141000396Y-135363369D01*
X141235507Y-135444083D01*
X141354999Y-135464023D01*
X141355000Y-135464022D01*
X141355000Y-134420501D01*
X141462685Y-134469680D01*
X141569237Y-134485000D01*
X141640763Y-134485000D01*
X141747315Y-134469680D01*
X141855000Y-134420501D01*
X141855000Y-135464023D01*
X141974492Y-135444083D01*
X142209603Y-135363369D01*
X142209614Y-135363364D01*
X142428228Y-135245057D01*
X142428237Y-135245051D01*
X142624397Y-135092373D01*
X142624407Y-135092364D01*
X142792767Y-134909478D01*
X142928732Y-134701367D01*
X143028588Y-134473716D01*
X143089040Y-134235000D01*
X142038686Y-134235000D01*
X142064493Y-134194844D01*
X142105000Y-134056889D01*
X142105000Y-133992500D01*
X158020960Y-133992500D01*
X158081411Y-134231216D01*
X158181267Y-134458867D01*
X158317232Y-134666978D01*
X158485592Y-134849864D01*
X158485602Y-134849873D01*
X158681762Y-135002551D01*
X158681771Y-135002557D01*
X158900385Y-135120864D01*
X158900396Y-135120869D01*
X159135507Y-135201583D01*
X159254999Y-135221523D01*
X159255000Y-135221522D01*
X159255000Y-134178001D01*
X159362685Y-134227180D01*
X159469237Y-134242500D01*
X159540763Y-134242500D01*
X159647315Y-134227180D01*
X159755000Y-134178001D01*
X159755000Y-135221523D01*
X159874492Y-135201583D01*
X160109603Y-135120869D01*
X160109614Y-135120864D01*
X160328228Y-135002557D01*
X160328237Y-135002551D01*
X160524397Y-134849873D01*
X160524407Y-134849864D01*
X160579176Y-134790370D01*
X173004500Y-134790370D01*
X173004501Y-134790376D01*
X173010908Y-134849983D01*
X173061202Y-134984828D01*
X173061206Y-134984835D01*
X173147452Y-135100044D01*
X173147455Y-135100047D01*
X173262664Y-135186293D01*
X173262671Y-135186297D01*
X173397517Y-135236591D01*
X173397516Y-135236591D01*
X173404444Y-135237335D01*
X173457127Y-135243000D01*
X175552872Y-135242999D01*
X175612483Y-135236591D01*
X175747331Y-135186296D01*
X175862546Y-135100046D01*
X175948796Y-134984831D01*
X175999091Y-134849983D01*
X176005500Y-134790373D01*
X176005500Y-134052763D01*
X182930787Y-134052763D01*
X182960413Y-134322013D01*
X182960415Y-134322024D01*
X183000073Y-134473716D01*
X183028928Y-134584088D01*
X183134870Y-134833390D01*
X183256608Y-135032864D01*
X183275979Y-135064605D01*
X183275986Y-135064615D01*
X183449253Y-135272819D01*
X183449259Y-135272824D01*
X183650998Y-135453582D01*
X183876910Y-135603044D01*
X184122176Y-135718020D01*
X184122183Y-135718022D01*
X184122185Y-135718023D01*
X184381557Y-135796057D01*
X184381564Y-135796058D01*
X184381569Y-135796060D01*
X184649561Y-135835500D01*
X184649566Y-135835500D01*
X184852629Y-135835500D01*
X184852631Y-135835500D01*
X184852636Y-135835499D01*
X184852648Y-135835499D01*
X184890191Y-135832750D01*
X185055156Y-135820677D01*
X185167758Y-135795593D01*
X185319546Y-135761782D01*
X185319548Y-135761781D01*
X185319553Y-135761780D01*
X185572558Y-135665014D01*
X185808777Y-135532441D01*
X186023177Y-135366888D01*
X186211186Y-135171881D01*
X186368799Y-134951579D01*
X186442787Y-134807669D01*
X186492649Y-134710690D01*
X186492651Y-134710684D01*
X186492656Y-134710675D01*
X186580118Y-134454305D01*
X186629319Y-134187933D01*
X186639212Y-133917235D01*
X186609586Y-133647982D01*
X186541072Y-133385912D01*
X186435130Y-133136610D01*
X186294018Y-132905390D01*
X186270821Y-132877516D01*
X186120746Y-132697180D01*
X186120740Y-132697175D01*
X185919002Y-132516418D01*
X185693092Y-132366957D01*
X185687072Y-132364135D01*
X185447824Y-132251980D01*
X185447819Y-132251978D01*
X185447814Y-132251976D01*
X185188442Y-132173942D01*
X185188428Y-132173939D01*
X185072791Y-132156921D01*
X184920439Y-132134500D01*
X184717369Y-132134500D01*
X184717351Y-132134500D01*
X184514844Y-132149323D01*
X184514831Y-132149325D01*
X184250453Y-132208217D01*
X184250446Y-132208220D01*
X183997439Y-132304987D01*
X183761226Y-132437557D01*
X183546822Y-132603112D01*
X183358822Y-132798109D01*
X183358816Y-132798116D01*
X183201202Y-133018419D01*
X183201199Y-133018424D01*
X183077350Y-133259309D01*
X183077343Y-133259327D01*
X182989884Y-133515685D01*
X182989881Y-133515699D01*
X182940681Y-133782068D01*
X182940680Y-133782075D01*
X182930787Y-134052763D01*
X176005500Y-134052763D01*
X176005499Y-132694628D01*
X175999091Y-132635017D01*
X175996270Y-132627454D01*
X175948797Y-132500171D01*
X175948793Y-132500164D01*
X175862547Y-132384955D01*
X175862544Y-132384952D01*
X175747335Y-132298706D01*
X175747328Y-132298702D01*
X175612482Y-132248408D01*
X175612483Y-132248408D01*
X175552883Y-132242001D01*
X175552881Y-132242000D01*
X175552873Y-132242000D01*
X175552864Y-132242000D01*
X173457129Y-132242000D01*
X173457123Y-132242001D01*
X173397516Y-132248408D01*
X173262671Y-132298702D01*
X173262664Y-132298706D01*
X173147455Y-132384952D01*
X173147452Y-132384955D01*
X173061206Y-132500164D01*
X173061202Y-132500171D01*
X173010908Y-132635017D01*
X173004501Y-132694616D01*
X173004501Y-132694623D01*
X173004500Y-132694635D01*
X173004500Y-134790370D01*
X160579176Y-134790370D01*
X160692767Y-134666978D01*
X160828732Y-134458867D01*
X160928588Y-134231216D01*
X160989040Y-133992500D01*
X159938686Y-133992500D01*
X159964493Y-133952344D01*
X160005000Y-133814389D01*
X160005000Y-133670611D01*
X159964493Y-133532656D01*
X159938686Y-133492500D01*
X160989040Y-133492500D01*
X160928588Y-133253783D01*
X160828732Y-133026132D01*
X160692767Y-132818021D01*
X160524407Y-132635135D01*
X160524397Y-132635126D01*
X160328237Y-132482448D01*
X160328228Y-132482442D01*
X160109614Y-132364135D01*
X160109603Y-132364130D01*
X159874492Y-132283416D01*
X159755000Y-132263476D01*
X159755000Y-133306998D01*
X159647315Y-133257820D01*
X159540763Y-133242500D01*
X159469237Y-133242500D01*
X159362685Y-133257820D01*
X159255000Y-133306998D01*
X159255000Y-132263476D01*
X159254999Y-132263476D01*
X159135507Y-132283416D01*
X158900396Y-132364130D01*
X158900385Y-132364135D01*
X158681771Y-132482442D01*
X158681762Y-132482448D01*
X158485602Y-132635126D01*
X158485592Y-132635135D01*
X158317232Y-132818021D01*
X158181267Y-133026132D01*
X158081411Y-133253783D01*
X158020960Y-133492500D01*
X159071314Y-133492500D01*
X159045507Y-133532656D01*
X159005000Y-133670611D01*
X159005000Y-133814389D01*
X159045507Y-133952344D01*
X159071314Y-133992500D01*
X158020960Y-133992500D01*
X142105000Y-133992500D01*
X142105000Y-133913111D01*
X142064493Y-133775156D01*
X142038686Y-133735000D01*
X143089040Y-133735000D01*
X143028588Y-133496283D01*
X142928732Y-133268632D01*
X142792767Y-133060521D01*
X142624407Y-132877635D01*
X142624397Y-132877626D01*
X142428237Y-132724948D01*
X142428228Y-132724942D01*
X142209614Y-132606635D01*
X142209603Y-132606630D01*
X141974492Y-132525916D01*
X141855000Y-132505976D01*
X141855000Y-133549498D01*
X141747315Y-133500320D01*
X141640763Y-133485000D01*
X141569237Y-133485000D01*
X141462685Y-133500320D01*
X141355000Y-133549498D01*
X141355000Y-132505976D01*
X141354999Y-132505976D01*
X141235507Y-132525916D01*
X141000396Y-132606630D01*
X141000385Y-132606635D01*
X140781771Y-132724942D01*
X140781762Y-132724948D01*
X140585602Y-132877626D01*
X140585592Y-132877635D01*
X140417232Y-133060521D01*
X140281267Y-133268632D01*
X140181411Y-133496283D01*
X140120960Y-133735000D01*
X141171314Y-133735000D01*
X141145507Y-133775156D01*
X141105000Y-133913111D01*
X141105000Y-134056889D01*
X141145507Y-134194844D01*
X141171314Y-134235000D01*
X140120960Y-134235000D01*
X128105500Y-134235000D01*
X128105499Y-132937128D01*
X128099091Y-132877517D01*
X128076900Y-132818021D01*
X128048797Y-132742671D01*
X128048793Y-132742664D01*
X127962547Y-132627455D01*
X127962544Y-132627452D01*
X127847335Y-132541206D01*
X127847328Y-132541202D01*
X127712482Y-132490908D01*
X127712483Y-132490908D01*
X127652883Y-132484501D01*
X127652881Y-132484500D01*
X127652873Y-132484500D01*
X127652864Y-132484500D01*
X125557129Y-132484500D01*
X125557123Y-132484501D01*
X125497516Y-132490908D01*
X125362671Y-132541202D01*
X125362664Y-132541206D01*
X125247455Y-132627452D01*
X125247452Y-132627455D01*
X125161206Y-132742664D01*
X125161202Y-132742671D01*
X125110908Y-132877517D01*
X125104501Y-132937116D01*
X125104501Y-132937123D01*
X125104500Y-132937135D01*
X125104500Y-135032870D01*
X117730640Y-135032870D01*
X117788799Y-134951579D01*
X117862787Y-134807669D01*
X117912649Y-134710690D01*
X117912651Y-134710684D01*
X117912656Y-134710675D01*
X118000118Y-134454305D01*
X118049319Y-134187933D01*
X118059212Y-133917235D01*
X118029586Y-133647982D01*
X117961072Y-133385912D01*
X117855130Y-133136610D01*
X117714018Y-132905390D01*
X117690821Y-132877516D01*
X117540746Y-132697180D01*
X117540740Y-132697175D01*
X117339002Y-132516418D01*
X117113092Y-132366957D01*
X117107072Y-132364135D01*
X116867824Y-132251980D01*
X116867819Y-132251978D01*
X116867814Y-132251976D01*
X116608442Y-132173942D01*
X116608428Y-132173939D01*
X116492791Y-132156921D01*
X116340439Y-132134500D01*
X116137369Y-132134500D01*
X116137351Y-132134500D01*
X115934844Y-132149323D01*
X115934831Y-132149325D01*
X115670453Y-132208217D01*
X115670446Y-132208220D01*
X115417439Y-132304987D01*
X115181226Y-132437557D01*
X114966822Y-132603112D01*
X114778822Y-132798109D01*
X114778816Y-132798116D01*
X114621202Y-133018419D01*
X114621199Y-133018424D01*
X114497350Y-133259309D01*
X114497343Y-133259327D01*
X114409884Y-133515685D01*
X114409881Y-133515699D01*
X114360681Y-133782068D01*
X114360680Y-133782075D01*
X114350787Y-134052763D01*
X111625500Y-134052763D01*
X111625500Y-130082401D01*
X150025746Y-130082401D01*
X150035745Y-130292327D01*
X150085296Y-130496578D01*
X150085298Y-130496582D01*
X150172598Y-130687743D01*
X150172601Y-130687748D01*
X150172602Y-130687750D01*
X150172604Y-130687753D01*
X150235627Y-130776256D01*
X150294515Y-130858953D01*
X150294520Y-130858959D01*
X150446620Y-131003985D01*
X150541578Y-131065011D01*
X150623428Y-131117613D01*
X150818543Y-131195725D01*
X150921729Y-131215612D01*
X151024914Y-131235500D01*
X151024915Y-131235500D01*
X151182419Y-131235500D01*
X151182425Y-131235500D01*
X151339218Y-131220528D01*
X151540875Y-131161316D01*
X151727682Y-131065011D01*
X151892886Y-130935092D01*
X152030519Y-130776256D01*
X152135604Y-130594244D01*
X152204344Y-130395633D01*
X152234254Y-130187602D01*
X152224254Y-129977670D01*
X152174704Y-129773424D01*
X152174701Y-129773417D01*
X152087401Y-129582256D01*
X152087398Y-129582251D01*
X152087397Y-129582250D01*
X152087396Y-129582247D01*
X151965486Y-129411048D01*
X151965484Y-129411046D01*
X151965479Y-129411040D01*
X151813379Y-129266014D01*
X151636574Y-129152388D01*
X151441455Y-129074274D01*
X151235086Y-129034500D01*
X151235085Y-129034500D01*
X151077575Y-129034500D01*
X150920782Y-129049472D01*
X150920778Y-129049473D01*
X150719127Y-129108683D01*
X150532313Y-129204991D01*
X150367116Y-129334905D01*
X150367112Y-129334909D01*
X150229478Y-129493746D01*
X150124398Y-129675750D01*
X150055656Y-129874365D01*
X150055656Y-129874367D01*
X150040804Y-129977670D01*
X150025746Y-130082401D01*
X111625500Y-130082401D01*
X111625500Y-122555004D01*
X117039732Y-122555004D01*
X117058777Y-122809154D01*
X117073661Y-122874367D01*
X117115492Y-123057637D01*
X117208607Y-123294888D01*
X117336041Y-123515612D01*
X117494950Y-123714877D01*
X117681783Y-123888232D01*
X117892366Y-124031805D01*
X117892371Y-124031807D01*
X117892372Y-124031808D01*
X117892373Y-124031809D01*
X118014328Y-124090538D01*
X118121992Y-124142387D01*
X118121993Y-124142387D01*
X118121996Y-124142389D01*
X118365542Y-124217513D01*
X118617565Y-124255500D01*
X118872435Y-124255500D01*
X119124458Y-124217513D01*
X119368004Y-124142389D01*
X119597634Y-124031805D01*
X119808217Y-123888232D01*
X119995050Y-123714877D01*
X120153959Y-123515612D01*
X120281393Y-123294888D01*
X120374508Y-123057637D01*
X120431222Y-122809157D01*
X120447101Y-122597261D01*
X120450268Y-122555004D01*
X124659732Y-122555004D01*
X124678777Y-122809154D01*
X124693661Y-122874367D01*
X124735492Y-123057637D01*
X124828607Y-123294888D01*
X124956041Y-123515612D01*
X125114950Y-123714877D01*
X125301783Y-123888232D01*
X125512366Y-124031805D01*
X125512371Y-124031807D01*
X125512372Y-124031808D01*
X125512373Y-124031809D01*
X125634328Y-124090538D01*
X125741992Y-124142387D01*
X125741993Y-124142387D01*
X125741996Y-124142389D01*
X125985542Y-124217513D01*
X126237565Y-124255500D01*
X126492435Y-124255500D01*
X126744458Y-124217513D01*
X126988004Y-124142389D01*
X127217634Y-124031805D01*
X127428217Y-123888232D01*
X127615050Y-123714877D01*
X127773959Y-123515612D01*
X127901393Y-123294888D01*
X127994508Y-123057637D01*
X128051222Y-122809157D01*
X128051534Y-122805000D01*
X132298968Y-122805000D01*
X132299274Y-122809079D01*
X132299275Y-122809086D01*
X132355967Y-123057475D01*
X132355973Y-123057494D01*
X132449058Y-123294671D01*
X132449057Y-123294671D01*
X132576455Y-123515328D01*
X132735320Y-123714540D01*
X132922097Y-123887842D01*
X133132616Y-124031371D01*
X133132624Y-124031376D01*
X133362176Y-124141921D01*
X133362174Y-124141921D01*
X133605652Y-124217024D01*
X133605660Y-124217026D01*
X133735000Y-124236520D01*
X133735000Y-123100881D01*
X133828369Y-123139556D01*
X133945677Y-123155000D01*
X134024323Y-123155000D01*
X134141631Y-123139556D01*
X134235000Y-123100881D01*
X134235000Y-124236519D01*
X134364339Y-124217026D01*
X134364347Y-124217024D01*
X134607824Y-124141921D01*
X134837376Y-124031376D01*
X134837377Y-124031375D01*
X135047905Y-123887840D01*
X135234679Y-123714540D01*
X135242283Y-123705005D01*
X139856857Y-123705005D01*
X139877390Y-123952812D01*
X139877392Y-123952824D01*
X139938436Y-124193881D01*
X140038326Y-124421606D01*
X140174333Y-124629782D01*
X140174336Y-124629785D01*
X140342756Y-124812738D01*
X140538991Y-124965474D01*
X140757690Y-125083828D01*
X140992886Y-125164571D01*
X141238165Y-125205500D01*
X141486835Y-125205500D01*
X141732114Y-125164571D01*
X141967310Y-125083828D01*
X142186009Y-124965474D01*
X142382244Y-124812738D01*
X142550664Y-124629785D01*
X142686673Y-124421607D01*
X142786563Y-124193881D01*
X142847608Y-123952821D01*
X142852960Y-123888231D01*
X142868143Y-123705005D01*
X142868143Y-123704994D01*
X142847609Y-123457187D01*
X142847607Y-123457175D01*
X142786563Y-123216118D01*
X142727909Y-123082401D01*
X150025746Y-123082401D01*
X150035745Y-123292327D01*
X150085296Y-123496578D01*
X150085298Y-123496582D01*
X150172598Y-123687743D01*
X150172601Y-123687748D01*
X150172602Y-123687750D01*
X150172604Y-123687753D01*
X150235627Y-123776256D01*
X150294515Y-123858953D01*
X150294520Y-123858959D01*
X150446620Y-124003985D01*
X150541578Y-124065011D01*
X150623428Y-124117613D01*
X150818543Y-124195725D01*
X150921729Y-124215612D01*
X151024914Y-124235500D01*
X151024915Y-124235500D01*
X151182419Y-124235500D01*
X151182425Y-124235500D01*
X151339218Y-124220528D01*
X151540875Y-124161316D01*
X151727682Y-124065011D01*
X151769907Y-124031805D01*
X151892883Y-123935094D01*
X151892886Y-123935092D01*
X152030519Y-123776256D01*
X152071656Y-123705005D01*
X160176857Y-123705005D01*
X160197390Y-123952812D01*
X160197392Y-123952824D01*
X160258436Y-124193881D01*
X160358326Y-124421606D01*
X160494333Y-124629782D01*
X160494336Y-124629785D01*
X160662756Y-124812738D01*
X160858991Y-124965474D01*
X161077690Y-125083828D01*
X161312886Y-125164571D01*
X161558165Y-125205500D01*
X161806835Y-125205500D01*
X162052114Y-125164571D01*
X162287310Y-125083828D01*
X162506009Y-124965474D01*
X162702244Y-124812738D01*
X162870664Y-124629785D01*
X163006673Y-124421607D01*
X163106563Y-124193881D01*
X163167608Y-123952821D01*
X163172960Y-123888231D01*
X163188143Y-123705005D01*
X163188143Y-123704994D01*
X163167609Y-123457187D01*
X163167607Y-123457175D01*
X163106563Y-123216118D01*
X163006673Y-122988393D01*
X162870666Y-122780217D01*
X162807528Y-122711631D01*
X162702244Y-122597262D01*
X162647946Y-122555000D01*
X164879815Y-122555000D01*
X164898503Y-122732805D01*
X164898504Y-122732807D01*
X164953747Y-122902829D01*
X164953750Y-122902835D01*
X165043141Y-123057665D01*
X165084812Y-123103946D01*
X165162764Y-123190521D01*
X165162767Y-123190523D01*
X165162770Y-123190526D01*
X165307407Y-123295612D01*
X165470733Y-123368329D01*
X165645609Y-123405500D01*
X165645610Y-123405500D01*
X165824389Y-123405500D01*
X165824391Y-123405500D01*
X165999267Y-123368329D01*
X166162593Y-123295612D01*
X166307230Y-123190526D01*
X166309867Y-123187598D01*
X166339218Y-123155000D01*
X166426859Y-123057665D01*
X166516250Y-122902835D01*
X166548039Y-122805000D01*
X167858968Y-122805000D01*
X167859274Y-122809079D01*
X167859275Y-122809086D01*
X167915967Y-123057475D01*
X167915973Y-123057494D01*
X168009058Y-123294671D01*
X168009057Y-123294671D01*
X168136455Y-123515328D01*
X168295320Y-123714540D01*
X168482097Y-123887842D01*
X168692616Y-124031371D01*
X168692624Y-124031376D01*
X168922176Y-124141921D01*
X168922174Y-124141921D01*
X169165652Y-124217024D01*
X169165660Y-124217026D01*
X169295000Y-124236520D01*
X169295000Y-123100881D01*
X169388369Y-123139556D01*
X169505677Y-123155000D01*
X169584323Y-123155000D01*
X169701631Y-123139556D01*
X169795000Y-123100881D01*
X169795000Y-124236519D01*
X169924339Y-124217026D01*
X169924347Y-124217024D01*
X170167824Y-124141921D01*
X170397376Y-124031376D01*
X170397377Y-124031375D01*
X170607905Y-123887840D01*
X170794679Y-123714540D01*
X170953544Y-123515328D01*
X171080941Y-123294671D01*
X171174026Y-123057494D01*
X171174032Y-123057475D01*
X171230724Y-122809086D01*
X171230725Y-122809079D01*
X171231032Y-122805000D01*
X170090882Y-122805000D01*
X170129556Y-122711631D01*
X170150176Y-122555004D01*
X175459732Y-122555004D01*
X175478777Y-122809154D01*
X175493661Y-122874367D01*
X175535492Y-123057637D01*
X175628607Y-123294888D01*
X175756041Y-123515612D01*
X175914950Y-123714877D01*
X176101783Y-123888232D01*
X176312366Y-124031805D01*
X176312371Y-124031807D01*
X176312372Y-124031808D01*
X176312373Y-124031809D01*
X176434328Y-124090538D01*
X176541992Y-124142387D01*
X176541993Y-124142387D01*
X176541996Y-124142389D01*
X176785542Y-124217513D01*
X177037565Y-124255500D01*
X177292435Y-124255500D01*
X177544458Y-124217513D01*
X177788004Y-124142389D01*
X178017634Y-124031805D01*
X178228217Y-123888232D01*
X178415050Y-123714877D01*
X178573959Y-123515612D01*
X178701393Y-123294888D01*
X178794508Y-123057637D01*
X178851222Y-122809157D01*
X178867101Y-122597261D01*
X178870268Y-122555004D01*
X183079732Y-122555004D01*
X183098777Y-122809154D01*
X183113661Y-122874367D01*
X183155492Y-123057637D01*
X183248607Y-123294888D01*
X183376041Y-123515612D01*
X183534950Y-123714877D01*
X183721783Y-123888232D01*
X183932366Y-124031805D01*
X183932371Y-124031807D01*
X183932372Y-124031808D01*
X183932373Y-124031809D01*
X184054328Y-124090538D01*
X184161992Y-124142387D01*
X184161993Y-124142387D01*
X184161996Y-124142389D01*
X184405542Y-124217513D01*
X184657565Y-124255500D01*
X184912435Y-124255500D01*
X185164458Y-124217513D01*
X185408004Y-124142389D01*
X185637634Y-124031805D01*
X185848217Y-123888232D01*
X186035050Y-123714877D01*
X186193959Y-123515612D01*
X186321393Y-123294888D01*
X186414508Y-123057637D01*
X186471222Y-122809157D01*
X186487101Y-122597261D01*
X186490268Y-122555004D01*
X186490268Y-122554995D01*
X186473775Y-122334908D01*
X186471222Y-122300843D01*
X186414508Y-122052363D01*
X186321393Y-121815112D01*
X186193959Y-121594388D01*
X186035050Y-121395123D01*
X185848217Y-121221768D01*
X185637634Y-121078195D01*
X185637630Y-121078193D01*
X185637627Y-121078191D01*
X185637626Y-121078190D01*
X185408006Y-120967612D01*
X185408008Y-120967612D01*
X185164466Y-120892489D01*
X185164462Y-120892488D01*
X185164458Y-120892487D01*
X185038350Y-120873479D01*
X184912440Y-120854500D01*
X184912435Y-120854500D01*
X184657565Y-120854500D01*
X184657559Y-120854500D01*
X184500609Y-120878157D01*
X184405542Y-120892487D01*
X184405539Y-120892488D01*
X184405533Y-120892489D01*
X184161992Y-120967612D01*
X183932373Y-121078190D01*
X183932372Y-121078191D01*
X183721782Y-121221768D01*
X183534952Y-121395121D01*
X183534950Y-121395123D01*
X183376041Y-121594388D01*
X183248608Y-121815109D01*
X183155492Y-122052362D01*
X183155490Y-122052369D01*
X183098777Y-122300845D01*
X183079732Y-122554995D01*
X183079732Y-122555004D01*
X178870268Y-122555004D01*
X178870268Y-122554995D01*
X178853775Y-122334908D01*
X178851222Y-122300843D01*
X178794508Y-122052363D01*
X178701393Y-121815112D01*
X178573959Y-121594388D01*
X178415050Y-121395123D01*
X178228217Y-121221768D01*
X178017634Y-121078195D01*
X178017630Y-121078193D01*
X178017627Y-121078191D01*
X178017626Y-121078190D01*
X177788006Y-120967612D01*
X177788008Y-120967612D01*
X177544466Y-120892489D01*
X177544462Y-120892488D01*
X177544458Y-120892487D01*
X177418350Y-120873479D01*
X177292440Y-120854500D01*
X177292435Y-120854500D01*
X177037565Y-120854500D01*
X177037559Y-120854500D01*
X176880609Y-120878157D01*
X176785542Y-120892487D01*
X176785539Y-120892488D01*
X176785533Y-120892489D01*
X176541992Y-120967612D01*
X176312373Y-121078190D01*
X176312372Y-121078191D01*
X176101782Y-121221768D01*
X175914952Y-121395121D01*
X175914950Y-121395123D01*
X175756041Y-121594388D01*
X175628608Y-121815109D01*
X175535492Y-122052362D01*
X175535490Y-122052369D01*
X175478777Y-122300845D01*
X175459732Y-122554995D01*
X175459732Y-122555004D01*
X170150176Y-122555004D01*
X170150177Y-122555000D01*
X170129556Y-122398369D01*
X170090882Y-122305000D01*
X171231031Y-122305000D01*
X171230725Y-122300920D01*
X171230724Y-122300913D01*
X171174032Y-122052524D01*
X171174026Y-122052505D01*
X171080941Y-121815328D01*
X171080942Y-121815328D01*
X170953544Y-121594671D01*
X170794679Y-121395459D01*
X170607905Y-121222159D01*
X170397377Y-121078624D01*
X170397376Y-121078623D01*
X170167823Y-120968078D01*
X170167825Y-120968078D01*
X169924354Y-120892977D01*
X169924348Y-120892976D01*
X169795000Y-120873479D01*
X169795000Y-122009118D01*
X169701631Y-121970444D01*
X169584323Y-121955000D01*
X169505677Y-121955000D01*
X169388369Y-121970444D01*
X169295000Y-122009118D01*
X169295000Y-120873479D01*
X169165651Y-120892976D01*
X169165645Y-120892977D01*
X168922175Y-120968078D01*
X168692624Y-121078623D01*
X168692616Y-121078628D01*
X168482097Y-121222157D01*
X168295320Y-121395459D01*
X168136455Y-121594671D01*
X168009058Y-121815328D01*
X167915973Y-122052505D01*
X167915967Y-122052524D01*
X167859275Y-122300913D01*
X167859274Y-122300920D01*
X167858968Y-122305000D01*
X168999118Y-122305000D01*
X168960444Y-122398369D01*
X168939823Y-122555000D01*
X168960444Y-122711631D01*
X168999118Y-122805000D01*
X167858968Y-122805000D01*
X166548039Y-122805000D01*
X166571497Y-122732803D01*
X166590185Y-122555000D01*
X166571497Y-122377197D01*
X166516250Y-122207165D01*
X166514994Y-122204989D01*
X166502113Y-122182678D01*
X166485500Y-122120678D01*
X166485500Y-109855004D01*
X167839732Y-109855004D01*
X167858777Y-110109154D01*
X167880767Y-110205500D01*
X167915492Y-110357637D01*
X168008607Y-110594888D01*
X168136041Y-110815612D01*
X168294950Y-111014877D01*
X168481783Y-111188232D01*
X168692366Y-111331805D01*
X168692371Y-111331807D01*
X168692372Y-111331808D01*
X168692373Y-111331809D01*
X168814328Y-111390538D01*
X168921992Y-111442387D01*
X168921993Y-111442387D01*
X168921996Y-111442389D01*
X169165542Y-111517513D01*
X169417565Y-111555500D01*
X169672435Y-111555500D01*
X169924458Y-111517513D01*
X170168004Y-111442389D01*
X170397634Y-111331805D01*
X170608217Y-111188232D01*
X170795050Y-111014877D01*
X170953959Y-110815612D01*
X171081393Y-110594888D01*
X171174508Y-110357637D01*
X171231222Y-110109157D01*
X171250268Y-109855004D01*
X175459732Y-109855004D01*
X175478777Y-110109154D01*
X175500767Y-110205500D01*
X175535492Y-110357637D01*
X175628607Y-110594888D01*
X175756041Y-110815612D01*
X175914950Y-111014877D01*
X176101783Y-111188232D01*
X176312366Y-111331805D01*
X176312371Y-111331807D01*
X176312372Y-111331808D01*
X176312373Y-111331809D01*
X176434328Y-111390538D01*
X176541992Y-111442387D01*
X176541993Y-111442387D01*
X176541996Y-111442389D01*
X176785542Y-111517513D01*
X177037565Y-111555500D01*
X177292435Y-111555500D01*
X177544458Y-111517513D01*
X177788004Y-111442389D01*
X178017634Y-111331805D01*
X178228217Y-111188232D01*
X178415050Y-111014877D01*
X178573959Y-110815612D01*
X178701393Y-110594888D01*
X178794508Y-110357637D01*
X178851222Y-110109157D01*
X178870268Y-109855004D01*
X183079732Y-109855004D01*
X183098777Y-110109154D01*
X183120767Y-110205500D01*
X183155492Y-110357637D01*
X183248607Y-110594888D01*
X183376041Y-110815612D01*
X183534950Y-111014877D01*
X183721783Y-111188232D01*
X183932366Y-111331805D01*
X183932371Y-111331807D01*
X183932372Y-111331808D01*
X183932373Y-111331809D01*
X184054328Y-111390538D01*
X184161992Y-111442387D01*
X184161993Y-111442387D01*
X184161996Y-111442389D01*
X184405542Y-111517513D01*
X184657565Y-111555500D01*
X184912435Y-111555500D01*
X185164458Y-111517513D01*
X185408004Y-111442389D01*
X185637634Y-111331805D01*
X185848217Y-111188232D01*
X186035050Y-111014877D01*
X186193959Y-110815612D01*
X186321393Y-110594888D01*
X186414508Y-110357637D01*
X186471222Y-110109157D01*
X186490268Y-109855000D01*
X186471222Y-109600843D01*
X186414508Y-109352363D01*
X186321393Y-109115112D01*
X186193959Y-108894388D01*
X186035050Y-108695123D01*
X185848217Y-108521768D01*
X185637634Y-108378195D01*
X185637630Y-108378193D01*
X185637627Y-108378191D01*
X185637626Y-108378190D01*
X185408006Y-108267612D01*
X185408008Y-108267612D01*
X185164466Y-108192489D01*
X185164462Y-108192488D01*
X185164458Y-108192487D01*
X185043231Y-108174214D01*
X184912440Y-108154500D01*
X184912435Y-108154500D01*
X184657565Y-108154500D01*
X184657559Y-108154500D01*
X184500609Y-108178157D01*
X184405542Y-108192487D01*
X184405539Y-108192488D01*
X184405533Y-108192489D01*
X184161992Y-108267612D01*
X183932373Y-108378190D01*
X183932372Y-108378191D01*
X183721782Y-108521768D01*
X183534952Y-108695121D01*
X183534950Y-108695123D01*
X183376041Y-108894388D01*
X183248608Y-109115109D01*
X183155492Y-109352362D01*
X183155490Y-109352369D01*
X183098777Y-109600845D01*
X183079732Y-109854995D01*
X183079732Y-109855004D01*
X178870268Y-109855004D01*
X178870268Y-109855000D01*
X178851222Y-109600843D01*
X178794508Y-109352363D01*
X178701393Y-109115112D01*
X178573959Y-108894388D01*
X178415050Y-108695123D01*
X178228217Y-108521768D01*
X178017634Y-108378195D01*
X178017630Y-108378193D01*
X178017627Y-108378191D01*
X178017626Y-108378190D01*
X177788006Y-108267612D01*
X177788008Y-108267612D01*
X177544466Y-108192489D01*
X177544462Y-108192488D01*
X177544458Y-108192487D01*
X177423231Y-108174214D01*
X177292440Y-108154500D01*
X177292435Y-108154500D01*
X177037565Y-108154500D01*
X177037559Y-108154500D01*
X176880609Y-108178157D01*
X176785542Y-108192487D01*
X176785539Y-108192488D01*
X176785533Y-108192489D01*
X176541992Y-108267612D01*
X176312373Y-108378190D01*
X176312372Y-108378191D01*
X176101782Y-108521768D01*
X175914952Y-108695121D01*
X175914950Y-108695123D01*
X175756041Y-108894388D01*
X175628608Y-109115109D01*
X175535492Y-109352362D01*
X175535490Y-109352369D01*
X175478777Y-109600845D01*
X175459732Y-109854995D01*
X175459732Y-109855004D01*
X171250268Y-109855004D01*
X171250268Y-109855000D01*
X171231222Y-109600843D01*
X171174508Y-109352363D01*
X171081393Y-109115112D01*
X170953959Y-108894388D01*
X170795050Y-108695123D01*
X170608217Y-108521768D01*
X170397634Y-108378195D01*
X170397630Y-108378193D01*
X170397627Y-108378191D01*
X170397626Y-108378190D01*
X170168006Y-108267612D01*
X170168008Y-108267612D01*
X169924466Y-108192489D01*
X169924462Y-108192488D01*
X169924458Y-108192487D01*
X169803231Y-108174214D01*
X169672440Y-108154500D01*
X169672435Y-108154500D01*
X169417565Y-108154500D01*
X169417559Y-108154500D01*
X169260609Y-108178157D01*
X169165542Y-108192487D01*
X169165539Y-108192488D01*
X169165533Y-108192489D01*
X168921992Y-108267612D01*
X168692373Y-108378190D01*
X168692372Y-108378191D01*
X168481782Y-108521768D01*
X168294952Y-108695121D01*
X168294950Y-108695123D01*
X168136041Y-108894388D01*
X168008608Y-109115109D01*
X167915492Y-109352362D01*
X167915490Y-109352369D01*
X167858777Y-109600845D01*
X167839732Y-109854995D01*
X167839732Y-109855004D01*
X166485500Y-109855004D01*
X166485500Y-104775004D01*
X183079732Y-104775004D01*
X183098777Y-105029154D01*
X183145120Y-105232197D01*
X183155492Y-105277637D01*
X183248607Y-105514888D01*
X183376041Y-105735612D01*
X183534950Y-105934877D01*
X183721783Y-106108232D01*
X183932366Y-106251805D01*
X183932371Y-106251807D01*
X183932372Y-106251808D01*
X183932373Y-106251809D01*
X184054328Y-106310538D01*
X184161992Y-106362387D01*
X184161993Y-106362387D01*
X184161996Y-106362389D01*
X184405542Y-106437513D01*
X184657565Y-106475500D01*
X184912435Y-106475500D01*
X185164458Y-106437513D01*
X185408004Y-106362389D01*
X185637634Y-106251805D01*
X185848217Y-106108232D01*
X186035050Y-105934877D01*
X186193959Y-105735612D01*
X186321393Y-105514888D01*
X186414508Y-105277637D01*
X186471222Y-105029157D01*
X186490268Y-104775000D01*
X186480348Y-104642630D01*
X186471222Y-104520845D01*
X186463686Y-104487829D01*
X186414508Y-104272363D01*
X186321393Y-104035112D01*
X186193959Y-103814388D01*
X186035050Y-103615123D01*
X185848217Y-103441768D01*
X185637634Y-103298195D01*
X185637630Y-103298193D01*
X185637627Y-103298191D01*
X185637626Y-103298190D01*
X185408006Y-103187612D01*
X185408008Y-103187612D01*
X185164466Y-103112489D01*
X185164462Y-103112488D01*
X185164458Y-103112487D01*
X185043231Y-103094214D01*
X184912440Y-103074500D01*
X184912435Y-103074500D01*
X184657565Y-103074500D01*
X184657559Y-103074500D01*
X184500609Y-103098157D01*
X184405542Y-103112487D01*
X184405539Y-103112488D01*
X184405533Y-103112489D01*
X184161992Y-103187612D01*
X183932373Y-103298190D01*
X183932372Y-103298191D01*
X183721782Y-103441768D01*
X183534952Y-103615121D01*
X183534950Y-103615123D01*
X183376041Y-103814388D01*
X183248608Y-104035109D01*
X183155492Y-104272362D01*
X183155490Y-104272369D01*
X183098777Y-104520845D01*
X183079732Y-104774995D01*
X183079732Y-104775004D01*
X166485500Y-104775004D01*
X166485500Y-103232228D01*
X166505185Y-103165189D01*
X166521814Y-103144552D01*
X168494177Y-101172188D01*
X168534111Y-101147729D01*
X168533329Y-101145972D01*
X168539263Y-101143329D01*
X168539267Y-101143329D01*
X168702593Y-101070612D01*
X168847230Y-100965526D01*
X168966859Y-100832665D01*
X169056250Y-100677835D01*
X169111497Y-100507803D01*
X169130185Y-100330000D01*
X169111497Y-100152197D01*
X169056250Y-99982165D01*
X168966859Y-99827335D01*
X168907975Y-99761938D01*
X168847235Y-99694478D01*
X168847232Y-99694476D01*
X168847231Y-99694475D01*
X168847230Y-99694474D01*
X168702593Y-99589388D01*
X168539267Y-99516671D01*
X168539265Y-99516670D01*
X168411594Y-99489533D01*
X168364391Y-99479500D01*
X168185609Y-99479500D01*
X168154954Y-99486015D01*
X168010733Y-99516670D01*
X168010728Y-99516672D01*
X167847408Y-99589387D01*
X167702768Y-99694475D01*
X167583140Y-99827336D01*
X167493750Y-99982164D01*
X167493749Y-99982166D01*
X167470355Y-100054165D01*
X167440105Y-100103526D01*
X165249358Y-102294272D01*
X165235729Y-102306051D01*
X165216469Y-102320390D01*
X165184632Y-102358331D01*
X165177346Y-102366284D01*
X165173407Y-102370224D01*
X165154176Y-102394545D01*
X165151902Y-102397337D01*
X165103694Y-102454790D01*
X165099729Y-102460819D01*
X165099682Y-102460788D01*
X165095630Y-102467147D01*
X165095679Y-102467177D01*
X165091889Y-102473321D01*
X165060192Y-102541294D01*
X165058623Y-102544536D01*
X165024957Y-102611572D01*
X165022488Y-102618357D01*
X165022432Y-102618336D01*
X165019960Y-102625450D01*
X165020015Y-102625469D01*
X165017743Y-102632325D01*
X165002573Y-102705788D01*
X165001793Y-102709304D01*
X164984499Y-102782279D01*
X164983661Y-102789454D01*
X164983601Y-102789447D01*
X164982835Y-102796945D01*
X164982895Y-102796951D01*
X164982265Y-102804140D01*
X164984448Y-102879128D01*
X164984500Y-102882735D01*
X164984500Y-122120678D01*
X164967887Y-122182678D01*
X164953750Y-122207163D01*
X164898504Y-122377192D01*
X164898503Y-122377194D01*
X164879815Y-122555000D01*
X162647946Y-122555000D01*
X162506009Y-122444526D01*
X162506007Y-122444525D01*
X162506006Y-122444524D01*
X162287311Y-122326172D01*
X162287302Y-122326169D01*
X162052116Y-122245429D01*
X161806835Y-122204500D01*
X161558165Y-122204500D01*
X161312883Y-122245429D01*
X161077697Y-122326169D01*
X161077688Y-122326172D01*
X160858993Y-122444524D01*
X160662757Y-122597261D01*
X160494333Y-122780217D01*
X160358326Y-122988393D01*
X160258436Y-123216118D01*
X160197392Y-123457175D01*
X160197390Y-123457187D01*
X160176857Y-123704994D01*
X160176857Y-123705005D01*
X152071656Y-123705005D01*
X152135604Y-123594244D01*
X152204344Y-123395633D01*
X152234254Y-123187602D01*
X152224254Y-122977670D01*
X152174704Y-122773424D01*
X152146484Y-122711631D01*
X152087401Y-122582256D01*
X152087398Y-122582251D01*
X152087397Y-122582250D01*
X152087396Y-122582247D01*
X151965486Y-122411048D01*
X151965484Y-122411046D01*
X151965479Y-122411040D01*
X151813379Y-122266014D01*
X151636574Y-122152388D01*
X151441455Y-122074274D01*
X151235086Y-122034500D01*
X151235085Y-122034500D01*
X151077575Y-122034500D01*
X150920782Y-122049472D01*
X150920778Y-122049473D01*
X150719127Y-122108683D01*
X150532313Y-122204991D01*
X150367116Y-122334905D01*
X150367112Y-122334909D01*
X150229478Y-122493746D01*
X150124398Y-122675750D01*
X150055656Y-122874365D01*
X150055656Y-122874367D01*
X150026221Y-123079099D01*
X150025746Y-123082401D01*
X142727909Y-123082401D01*
X142686673Y-122988393D01*
X142550666Y-122780217D01*
X142487528Y-122711631D01*
X142382244Y-122597262D01*
X142186009Y-122444526D01*
X142186007Y-122444525D01*
X142186006Y-122444524D01*
X141967311Y-122326172D01*
X141967302Y-122326169D01*
X141732116Y-122245429D01*
X141486835Y-122204500D01*
X141238165Y-122204500D01*
X140992883Y-122245429D01*
X140757697Y-122326169D01*
X140757688Y-122326172D01*
X140538993Y-122444524D01*
X140342757Y-122597261D01*
X140174333Y-122780217D01*
X140038326Y-122988393D01*
X139938436Y-123216118D01*
X139877392Y-123457175D01*
X139877390Y-123457187D01*
X139856857Y-123704994D01*
X139856857Y-123705005D01*
X135242283Y-123705005D01*
X135393544Y-123515328D01*
X135520941Y-123294671D01*
X135614026Y-123057494D01*
X135614032Y-123057475D01*
X135670724Y-122809086D01*
X135670725Y-122809079D01*
X135671032Y-122805000D01*
X134530882Y-122805000D01*
X134569556Y-122711631D01*
X134590177Y-122555000D01*
X134569556Y-122398369D01*
X134530882Y-122305000D01*
X135671031Y-122305000D01*
X135670725Y-122300920D01*
X135670724Y-122300913D01*
X135614032Y-122052524D01*
X135614026Y-122052505D01*
X135520941Y-121815328D01*
X135520942Y-121815328D01*
X135393544Y-121594671D01*
X135234679Y-121395459D01*
X135047905Y-121222159D01*
X134837377Y-121078624D01*
X134837376Y-121078623D01*
X134607823Y-120968078D01*
X134607825Y-120968078D01*
X134364354Y-120892977D01*
X134364348Y-120892976D01*
X134235000Y-120873479D01*
X134235000Y-122009118D01*
X134141631Y-121970444D01*
X134024323Y-121955000D01*
X133945677Y-121955000D01*
X133828369Y-121970444D01*
X133735000Y-122009118D01*
X133735000Y-120873479D01*
X133605651Y-120892976D01*
X133605645Y-120892977D01*
X133362175Y-120968078D01*
X133132624Y-121078623D01*
X133132616Y-121078628D01*
X132922097Y-121222157D01*
X132735320Y-121395459D01*
X132576455Y-121594671D01*
X132449058Y-121815328D01*
X132355973Y-122052505D01*
X132355967Y-122052524D01*
X132299275Y-122300913D01*
X132299274Y-122300920D01*
X132298968Y-122305000D01*
X133439118Y-122305000D01*
X133400444Y-122398369D01*
X133379823Y-122555000D01*
X133400444Y-122711631D01*
X133439118Y-122805000D01*
X132298968Y-122805000D01*
X128051534Y-122805000D01*
X128067101Y-122597261D01*
X128070268Y-122555004D01*
X128070268Y-122554995D01*
X128053775Y-122334908D01*
X128051222Y-122300843D01*
X127994508Y-122052363D01*
X127901393Y-121815112D01*
X127773959Y-121594388D01*
X127615050Y-121395123D01*
X127428217Y-121221768D01*
X127217634Y-121078195D01*
X127217630Y-121078193D01*
X127217627Y-121078191D01*
X127217626Y-121078190D01*
X126988006Y-120967612D01*
X126988008Y-120967612D01*
X126744466Y-120892489D01*
X126744462Y-120892488D01*
X126744458Y-120892487D01*
X126618350Y-120873479D01*
X126492440Y-120854500D01*
X126492435Y-120854500D01*
X126237565Y-120854500D01*
X126237559Y-120854500D01*
X126080609Y-120878157D01*
X125985542Y-120892487D01*
X125985539Y-120892488D01*
X125985533Y-120892489D01*
X125741992Y-120967612D01*
X125512373Y-121078190D01*
X125512372Y-121078191D01*
X125301782Y-121221768D01*
X125114952Y-121395121D01*
X125114950Y-121395123D01*
X124956041Y-121594388D01*
X124828608Y-121815109D01*
X124735492Y-122052362D01*
X124735490Y-122052369D01*
X124678777Y-122300845D01*
X124659732Y-122554995D01*
X124659732Y-122555004D01*
X120450268Y-122555004D01*
X120450268Y-122554995D01*
X120433775Y-122334908D01*
X120431222Y-122300843D01*
X120374508Y-122052363D01*
X120281393Y-121815112D01*
X120153959Y-121594388D01*
X119995050Y-121395123D01*
X119808217Y-121221768D01*
X119597634Y-121078195D01*
X119597630Y-121078193D01*
X119597627Y-121078191D01*
X119597626Y-121078190D01*
X119368006Y-120967612D01*
X119368008Y-120967612D01*
X119124466Y-120892489D01*
X119124462Y-120892488D01*
X119124458Y-120892487D01*
X118998350Y-120873479D01*
X118872440Y-120854500D01*
X118872435Y-120854500D01*
X118617565Y-120854500D01*
X118617559Y-120854500D01*
X118460609Y-120878157D01*
X118365542Y-120892487D01*
X118365539Y-120892488D01*
X118365533Y-120892489D01*
X118121992Y-120967612D01*
X117892373Y-121078190D01*
X117892372Y-121078191D01*
X117681782Y-121221768D01*
X117494952Y-121395121D01*
X117494950Y-121395123D01*
X117336041Y-121594388D01*
X117208608Y-121815109D01*
X117115492Y-122052362D01*
X117115490Y-122052369D01*
X117058777Y-122300845D01*
X117039732Y-122554995D01*
X117039732Y-122555004D01*
X111625500Y-122555004D01*
X111625500Y-109855004D01*
X117039732Y-109855004D01*
X117058777Y-110109154D01*
X117080767Y-110205500D01*
X117115492Y-110357637D01*
X117208607Y-110594888D01*
X117336041Y-110815612D01*
X117494950Y-111014877D01*
X117681783Y-111188232D01*
X117892366Y-111331805D01*
X117892371Y-111331807D01*
X117892372Y-111331808D01*
X117892373Y-111331809D01*
X118014328Y-111390538D01*
X118121992Y-111442387D01*
X118121993Y-111442387D01*
X118121996Y-111442389D01*
X118365542Y-111517513D01*
X118617565Y-111555500D01*
X118872435Y-111555500D01*
X119124458Y-111517513D01*
X119368004Y-111442389D01*
X119597634Y-111331805D01*
X119808217Y-111188232D01*
X119995050Y-111014877D01*
X120153959Y-110815612D01*
X120281393Y-110594888D01*
X120374508Y-110357637D01*
X120431222Y-110109157D01*
X120450268Y-109855004D01*
X124659732Y-109855004D01*
X124678777Y-110109154D01*
X124700767Y-110205500D01*
X124735492Y-110357637D01*
X124828607Y-110594888D01*
X124956041Y-110815612D01*
X125114950Y-111014877D01*
X125301783Y-111188232D01*
X125512366Y-111331805D01*
X125512371Y-111331807D01*
X125512372Y-111331808D01*
X125512373Y-111331809D01*
X125634328Y-111390538D01*
X125741992Y-111442387D01*
X125741993Y-111442387D01*
X125741996Y-111442389D01*
X125985542Y-111517513D01*
X126237565Y-111555500D01*
X126492435Y-111555500D01*
X126744458Y-111517513D01*
X126988004Y-111442389D01*
X127217634Y-111331805D01*
X127428217Y-111188232D01*
X127615050Y-111014877D01*
X127773959Y-110815612D01*
X127901393Y-110594888D01*
X127994508Y-110357637D01*
X128051222Y-110109157D01*
X128070268Y-109855004D01*
X132279732Y-109855004D01*
X132298777Y-110109154D01*
X132320767Y-110205500D01*
X132355492Y-110357637D01*
X132448607Y-110594888D01*
X132576041Y-110815612D01*
X132734950Y-111014877D01*
X132921783Y-111188232D01*
X133132366Y-111331805D01*
X133132371Y-111331807D01*
X133132372Y-111331808D01*
X133132373Y-111331809D01*
X133254328Y-111390538D01*
X133361992Y-111442387D01*
X133361993Y-111442387D01*
X133361996Y-111442389D01*
X133605542Y-111517513D01*
X133857565Y-111555500D01*
X134112435Y-111555500D01*
X134364458Y-111517513D01*
X134608004Y-111442389D01*
X134837634Y-111331805D01*
X135048217Y-111188232D01*
X135235050Y-111014877D01*
X135393959Y-110815612D01*
X135521393Y-110594888D01*
X135614508Y-110357637D01*
X135671222Y-110109157D01*
X135690268Y-109855000D01*
X135682615Y-109752870D01*
X139862000Y-109752870D01*
X139862001Y-109752876D01*
X139868408Y-109812483D01*
X139918702Y-109947328D01*
X139918706Y-109947335D01*
X140004952Y-110062544D01*
X140004955Y-110062547D01*
X140120164Y-110148793D01*
X140120171Y-110148797D01*
X140255017Y-110199091D01*
X140255016Y-110199091D01*
X140261944Y-110199835D01*
X140314627Y-110205500D01*
X142410372Y-110205499D01*
X142469983Y-110199091D01*
X142604831Y-110148796D01*
X142720046Y-110062546D01*
X142806296Y-109947331D01*
X142856591Y-109812483D01*
X142863000Y-109752873D01*
X142863000Y-109752870D01*
X160182000Y-109752870D01*
X160182001Y-109752876D01*
X160188408Y-109812483D01*
X160238702Y-109947328D01*
X160238706Y-109947335D01*
X160324952Y-110062544D01*
X160324955Y-110062547D01*
X160440164Y-110148793D01*
X160440171Y-110148797D01*
X160575017Y-110199091D01*
X160575016Y-110199091D01*
X160581944Y-110199835D01*
X160634627Y-110205500D01*
X162730372Y-110205499D01*
X162789983Y-110199091D01*
X162924831Y-110148796D01*
X163040046Y-110062546D01*
X163126296Y-109947331D01*
X163176591Y-109812483D01*
X163183000Y-109752873D01*
X163182999Y-107657128D01*
X163176591Y-107597517D01*
X163137535Y-107492803D01*
X163126297Y-107462671D01*
X163126293Y-107462664D01*
X163040047Y-107347455D01*
X163040044Y-107347452D01*
X162924835Y-107261206D01*
X162924828Y-107261202D01*
X162789982Y-107210908D01*
X162789983Y-107210908D01*
X162730383Y-107204501D01*
X162730381Y-107204500D01*
X162730373Y-107204500D01*
X162730364Y-107204500D01*
X160634629Y-107204500D01*
X160634623Y-107204501D01*
X160575016Y-107210908D01*
X160440171Y-107261202D01*
X160440164Y-107261206D01*
X160324955Y-107347452D01*
X160324952Y-107347455D01*
X160238706Y-107462664D01*
X160238702Y-107462671D01*
X160188408Y-107597517D01*
X160182001Y-107657116D01*
X160182001Y-107657123D01*
X160182000Y-107657135D01*
X160182000Y-109752870D01*
X142863000Y-109752870D01*
X142862999Y-107657128D01*
X142856591Y-107597517D01*
X142817535Y-107492803D01*
X142806297Y-107462671D01*
X142806293Y-107462664D01*
X142720047Y-107347455D01*
X142720044Y-107347452D01*
X142604835Y-107261206D01*
X142604828Y-107261202D01*
X142469982Y-107210908D01*
X142469983Y-107210908D01*
X142410383Y-107204501D01*
X142410381Y-107204500D01*
X142410373Y-107204500D01*
X142410364Y-107204500D01*
X140314629Y-107204500D01*
X140314623Y-107204501D01*
X140255016Y-107210908D01*
X140120171Y-107261202D01*
X140120164Y-107261206D01*
X140004955Y-107347452D01*
X140004952Y-107347455D01*
X139918706Y-107462664D01*
X139918702Y-107462671D01*
X139868408Y-107597517D01*
X139862001Y-107657116D01*
X139862001Y-107657123D01*
X139862000Y-107657135D01*
X139862000Y-109752870D01*
X135682615Y-109752870D01*
X135671222Y-109600843D01*
X135614508Y-109352363D01*
X135521393Y-109115112D01*
X135393959Y-108894388D01*
X135235050Y-108695123D01*
X135048217Y-108521768D01*
X134837634Y-108378195D01*
X134837630Y-108378193D01*
X134837627Y-108378191D01*
X134837626Y-108378190D01*
X134608006Y-108267612D01*
X134608008Y-108267612D01*
X134364466Y-108192489D01*
X134364462Y-108192488D01*
X134364458Y-108192487D01*
X134243231Y-108174214D01*
X134112440Y-108154500D01*
X134112435Y-108154500D01*
X133857565Y-108154500D01*
X133857559Y-108154500D01*
X133700609Y-108178157D01*
X133605542Y-108192487D01*
X133605539Y-108192488D01*
X133605533Y-108192489D01*
X133361992Y-108267612D01*
X133132373Y-108378190D01*
X133132372Y-108378191D01*
X132921782Y-108521768D01*
X132734952Y-108695121D01*
X132734950Y-108695123D01*
X132576041Y-108894388D01*
X132448608Y-109115109D01*
X132355492Y-109352362D01*
X132355490Y-109352369D01*
X132298777Y-109600845D01*
X132279732Y-109854995D01*
X132279732Y-109855004D01*
X128070268Y-109855004D01*
X128070268Y-109855000D01*
X128051222Y-109600843D01*
X127994508Y-109352363D01*
X127901393Y-109115112D01*
X127773959Y-108894388D01*
X127615050Y-108695123D01*
X127428217Y-108521768D01*
X127217634Y-108378195D01*
X127217630Y-108378193D01*
X127217627Y-108378191D01*
X127217626Y-108378190D01*
X126988006Y-108267612D01*
X126988008Y-108267612D01*
X126744466Y-108192489D01*
X126744462Y-108192488D01*
X126744458Y-108192487D01*
X126623231Y-108174214D01*
X126492440Y-108154500D01*
X126492435Y-108154500D01*
X126237565Y-108154500D01*
X126237559Y-108154500D01*
X126080609Y-108178157D01*
X125985542Y-108192487D01*
X125985539Y-108192488D01*
X125985533Y-108192489D01*
X125741992Y-108267612D01*
X125512373Y-108378190D01*
X125512372Y-108378191D01*
X125301782Y-108521768D01*
X125114952Y-108695121D01*
X125114950Y-108695123D01*
X124956041Y-108894388D01*
X124828608Y-109115109D01*
X124735492Y-109352362D01*
X124735490Y-109352369D01*
X124678777Y-109600845D01*
X124659732Y-109854995D01*
X124659732Y-109855004D01*
X120450268Y-109855004D01*
X120450268Y-109855000D01*
X120431222Y-109600843D01*
X120374508Y-109352363D01*
X120281393Y-109115112D01*
X120153959Y-108894388D01*
X119995050Y-108695123D01*
X119808217Y-108521768D01*
X119597634Y-108378195D01*
X119597630Y-108378193D01*
X119597627Y-108378191D01*
X119597626Y-108378190D01*
X119368006Y-108267612D01*
X119368008Y-108267612D01*
X119124466Y-108192489D01*
X119124462Y-108192488D01*
X119124458Y-108192487D01*
X119003231Y-108174214D01*
X118872440Y-108154500D01*
X118872435Y-108154500D01*
X118617565Y-108154500D01*
X118617559Y-108154500D01*
X118460609Y-108178157D01*
X118365542Y-108192487D01*
X118365539Y-108192488D01*
X118365533Y-108192489D01*
X118121992Y-108267612D01*
X117892373Y-108378190D01*
X117892372Y-108378191D01*
X117681782Y-108521768D01*
X117494952Y-108695121D01*
X117494950Y-108695123D01*
X117336041Y-108894388D01*
X117208608Y-109115109D01*
X117115492Y-109352362D01*
X117115490Y-109352369D01*
X117058777Y-109600845D01*
X117039732Y-109854995D01*
X117039732Y-109855004D01*
X111625500Y-109855004D01*
X111625500Y-107315000D01*
X126779815Y-107315000D01*
X126798503Y-107492805D01*
X126798504Y-107492807D01*
X126853747Y-107662829D01*
X126853750Y-107662835D01*
X126943141Y-107817665D01*
X126984812Y-107863946D01*
X127062764Y-107950521D01*
X127062767Y-107950523D01*
X127062770Y-107950526D01*
X127207407Y-108055612D01*
X127370733Y-108128329D01*
X127545609Y-108165500D01*
X127545610Y-108165500D01*
X127724389Y-108165500D01*
X127724391Y-108165500D01*
X127899267Y-108128329D01*
X128016306Y-108076219D01*
X128066741Y-108065500D01*
X130044773Y-108065500D01*
X130062743Y-108066809D01*
X130086501Y-108070289D01*
X130135847Y-108065971D01*
X130146654Y-108065500D01*
X130152182Y-108065500D01*
X130152187Y-108065500D01*
X130183034Y-108061893D01*
X130186508Y-108061539D01*
X130261275Y-108054999D01*
X130261283Y-108054996D01*
X130268344Y-108053539D01*
X130268356Y-108053598D01*
X130275721Y-108051965D01*
X130275707Y-108051906D01*
X130282727Y-108050241D01*
X130282733Y-108050241D01*
X130353257Y-108024572D01*
X130356595Y-108023412D01*
X130427812Y-107999814D01*
X130427820Y-107999808D01*
X130434360Y-107996760D01*
X130434386Y-107996816D01*
X130441168Y-107993532D01*
X130441141Y-107993478D01*
X130447591Y-107990238D01*
X130447595Y-107990237D01*
X130510315Y-107948984D01*
X130513210Y-107947140D01*
X130577134Y-107907712D01*
X130577140Y-107907705D01*
X130582803Y-107903229D01*
X130582841Y-107903277D01*
X130588678Y-107898522D01*
X130588639Y-107898475D01*
X130594169Y-107893833D01*
X130594174Y-107893830D01*
X130645662Y-107839254D01*
X130648108Y-107836736D01*
X133074846Y-105410000D01*
X161704815Y-105410000D01*
X161723503Y-105587805D01*
X161723504Y-105587807D01*
X161778747Y-105757829D01*
X161778750Y-105757835D01*
X161868141Y-105912665D01*
X161888140Y-105934876D01*
X161987764Y-106045521D01*
X161987767Y-106045523D01*
X161987770Y-106045526D01*
X162132407Y-106150612D01*
X162295733Y-106223329D01*
X162470609Y-106260500D01*
X162470610Y-106260500D01*
X162649389Y-106260500D01*
X162649391Y-106260500D01*
X162824267Y-106223329D01*
X162987593Y-106150612D01*
X163132230Y-106045526D01*
X163251859Y-105912665D01*
X163341250Y-105757835D01*
X163396497Y-105587803D01*
X163415185Y-105410000D01*
X163396497Y-105232197D01*
X163341250Y-105062165D01*
X163327113Y-105037678D01*
X163310500Y-104975678D01*
X163310500Y-102597228D01*
X163330185Y-102530189D01*
X163346814Y-102509552D01*
X166855638Y-99000727D01*
X166869267Y-98988950D01*
X166888530Y-98974610D01*
X166920366Y-98936669D01*
X166927683Y-98928684D01*
X166928992Y-98927373D01*
X166931591Y-98924776D01*
X166950853Y-98900413D01*
X166953076Y-98897686D01*
X166960647Y-98888664D01*
X167001302Y-98840214D01*
X167001304Y-98840209D01*
X167005274Y-98834175D01*
X167005325Y-98834208D01*
X167009369Y-98827860D01*
X167009317Y-98827828D01*
X167013106Y-98821682D01*
X167013111Y-98821677D01*
X167044832Y-98753647D01*
X167046358Y-98750496D01*
X167080040Y-98683433D01*
X167080041Y-98683428D01*
X167082508Y-98676650D01*
X167082566Y-98676671D01*
X167085043Y-98669544D01*
X167084986Y-98669526D01*
X167087256Y-98662676D01*
X167087725Y-98660403D01*
X167102439Y-98589139D01*
X167103187Y-98585762D01*
X167120500Y-98512721D01*
X167120500Y-98512717D01*
X167120501Y-98512713D01*
X167121339Y-98505548D01*
X167121398Y-98505554D01*
X167122164Y-98498054D01*
X167122105Y-98498049D01*
X167122734Y-98490859D01*
X167120818Y-98425000D01*
X170729341Y-98425000D01*
X170749936Y-98660403D01*
X170749938Y-98660413D01*
X170811094Y-98888655D01*
X170811096Y-98888659D01*
X170811097Y-98888663D01*
X170833483Y-98936669D01*
X170910965Y-99102830D01*
X170910967Y-99102834D01*
X171046501Y-99296395D01*
X171046506Y-99296402D01*
X171213597Y-99463493D01*
X171213603Y-99463498D01*
X171278465Y-99508915D01*
X171393391Y-99589387D01*
X171399594Y-99593730D01*
X171443219Y-99648307D01*
X171450413Y-99717805D01*
X171418890Y-99780160D01*
X171399595Y-99796880D01*
X171213922Y-99926890D01*
X171213920Y-99926891D01*
X171046891Y-100093920D01*
X171046886Y-100093926D01*
X170911400Y-100287420D01*
X170911399Y-100287422D01*
X170811570Y-100501507D01*
X170811567Y-100501513D01*
X170754364Y-100714999D01*
X170754364Y-100715000D01*
X171651314Y-100715000D01*
X171625507Y-100755156D01*
X171585000Y-100893111D01*
X171585000Y-101036889D01*
X171625507Y-101174844D01*
X171651314Y-101215000D01*
X170754364Y-101215000D01*
X170811567Y-101428486D01*
X170811570Y-101428492D01*
X170911399Y-101642578D01*
X171046894Y-101836082D01*
X171213917Y-102003105D01*
X171407421Y-102138600D01*
X171621507Y-102238429D01*
X171621516Y-102238433D01*
X171835000Y-102295634D01*
X171835000Y-101400501D01*
X171942685Y-101449680D01*
X172049237Y-101465000D01*
X172120763Y-101465000D01*
X172227315Y-101449680D01*
X172335000Y-101400501D01*
X172335000Y-102295633D01*
X172548483Y-102238433D01*
X172548492Y-102238429D01*
X172762578Y-102138600D01*
X172956082Y-102003105D01*
X173123105Y-101836082D01*
X173258600Y-101642578D01*
X173358429Y-101428492D01*
X173358432Y-101428486D01*
X173415636Y-101215000D01*
X172518686Y-101215000D01*
X172544493Y-101174844D01*
X172585000Y-101036889D01*
X172585000Y-100893111D01*
X172544493Y-100755156D01*
X172518686Y-100715000D01*
X173415636Y-100715000D01*
X173415635Y-100714999D01*
X173358432Y-100501513D01*
X173358429Y-100501507D01*
X173258600Y-100287422D01*
X173258599Y-100287420D01*
X173123113Y-100093926D01*
X173123108Y-100093920D01*
X172956078Y-99926890D01*
X172770405Y-99796879D01*
X172726780Y-99742302D01*
X172719588Y-99672804D01*
X172751110Y-99610449D01*
X172770406Y-99593730D01*
X172776607Y-99589388D01*
X172956401Y-99463495D01*
X173123495Y-99296401D01*
X173259035Y-99102830D01*
X173358903Y-98888663D01*
X173420063Y-98660408D01*
X173440659Y-98425000D01*
X173420063Y-98189592D01*
X173358903Y-97961337D01*
X173259035Y-97747171D01*
X173123495Y-97553599D01*
X173123494Y-97553597D01*
X172956402Y-97386506D01*
X172956401Y-97386505D01*
X172770405Y-97256269D01*
X172726781Y-97201692D01*
X172719588Y-97132193D01*
X172751110Y-97069839D01*
X172770405Y-97053119D01*
X172956082Y-96923105D01*
X173123105Y-96756082D01*
X173258600Y-96562578D01*
X173358429Y-96348492D01*
X173358432Y-96348486D01*
X173415636Y-96135000D01*
X172518686Y-96135000D01*
X172544493Y-96094844D01*
X172585000Y-95956889D01*
X172585000Y-95813111D01*
X172544493Y-95675156D01*
X172518686Y-95635000D01*
X173415636Y-95635000D01*
X173415635Y-95634999D01*
X173358432Y-95421513D01*
X173358429Y-95421507D01*
X173258600Y-95207422D01*
X173258599Y-95207420D01*
X173123113Y-95013926D01*
X173123108Y-95013920D01*
X173001053Y-94891865D01*
X172967568Y-94830542D01*
X172972552Y-94760850D01*
X173014424Y-94704917D01*
X173045400Y-94688002D01*
X173177331Y-94638796D01*
X173292546Y-94552546D01*
X173378796Y-94437331D01*
X173429091Y-94302483D01*
X173435500Y-94242873D01*
X173435499Y-92447128D01*
X173429091Y-92387517D01*
X173378796Y-92252669D01*
X173378795Y-92252668D01*
X173378793Y-92252664D01*
X173292547Y-92137455D01*
X173292544Y-92137452D01*
X173209125Y-92075004D01*
X183079732Y-92075004D01*
X183098777Y-92329154D01*
X183145000Y-92531671D01*
X183155492Y-92577637D01*
X183248607Y-92814888D01*
X183376041Y-93035612D01*
X183534950Y-93234877D01*
X183721783Y-93408232D01*
X183932366Y-93551805D01*
X183932371Y-93551807D01*
X183932372Y-93551808D01*
X183932373Y-93551809D01*
X184029402Y-93598535D01*
X184161992Y-93662387D01*
X184161993Y-93662387D01*
X184161996Y-93662389D01*
X184405542Y-93737513D01*
X184657565Y-93775500D01*
X184912435Y-93775500D01*
X185164458Y-93737513D01*
X185408004Y-93662389D01*
X185637634Y-93551805D01*
X185848217Y-93408232D01*
X186035050Y-93234877D01*
X186193959Y-93035612D01*
X186321393Y-92814888D01*
X186414508Y-92577637D01*
X186471222Y-92329157D01*
X186490268Y-92075000D01*
X186484235Y-91994500D01*
X186471222Y-91820845D01*
X186442306Y-91694157D01*
X186414508Y-91572363D01*
X186321393Y-91335112D01*
X186193959Y-91114388D01*
X186035050Y-90915123D01*
X185848217Y-90741768D01*
X185637634Y-90598195D01*
X185637630Y-90598193D01*
X185637627Y-90598191D01*
X185637626Y-90598190D01*
X185408006Y-90487612D01*
X185408008Y-90487612D01*
X185164466Y-90412489D01*
X185164462Y-90412488D01*
X185164458Y-90412487D01*
X185043231Y-90394214D01*
X184912440Y-90374500D01*
X184912435Y-90374500D01*
X184657565Y-90374500D01*
X184657559Y-90374500D01*
X184500609Y-90398157D01*
X184405542Y-90412487D01*
X184405539Y-90412488D01*
X184405533Y-90412489D01*
X184161992Y-90487612D01*
X183932373Y-90598190D01*
X183932372Y-90598191D01*
X183721782Y-90741768D01*
X183534952Y-90915121D01*
X183534950Y-90915123D01*
X183376041Y-91114388D01*
X183248608Y-91335109D01*
X183155492Y-91572362D01*
X183155490Y-91572369D01*
X183098777Y-91820845D01*
X183079732Y-92074995D01*
X183079732Y-92075004D01*
X173209125Y-92075004D01*
X173177335Y-92051206D01*
X173177328Y-92051202D01*
X173042482Y-92000908D01*
X173042483Y-92000908D01*
X172982883Y-91994501D01*
X172982881Y-91994500D01*
X172982873Y-91994500D01*
X172982864Y-91994500D01*
X171187129Y-91994500D01*
X171187123Y-91994501D01*
X171127516Y-92000908D01*
X170992671Y-92051202D01*
X170992664Y-92051206D01*
X170877455Y-92137452D01*
X170877452Y-92137455D01*
X170791206Y-92252664D01*
X170791202Y-92252671D01*
X170740908Y-92387517D01*
X170734501Y-92447116D01*
X170734501Y-92447123D01*
X170734500Y-92447135D01*
X170734500Y-94242870D01*
X170734501Y-94242876D01*
X170740908Y-94302483D01*
X170791202Y-94437328D01*
X170791206Y-94437335D01*
X170877452Y-94552544D01*
X170877455Y-94552547D01*
X170992664Y-94638793D01*
X170992671Y-94638797D01*
X170992674Y-94638798D01*
X171124598Y-94688002D01*
X171180531Y-94729873D01*
X171204949Y-94795337D01*
X171190098Y-94863610D01*
X171168947Y-94891865D01*
X171046886Y-95013926D01*
X170911400Y-95207420D01*
X170911399Y-95207422D01*
X170811570Y-95421507D01*
X170811567Y-95421513D01*
X170754364Y-95634999D01*
X170754364Y-95635000D01*
X171651314Y-95635000D01*
X171625507Y-95675156D01*
X171585000Y-95813111D01*
X171585000Y-95956889D01*
X171625507Y-96094844D01*
X171651314Y-96135000D01*
X170754364Y-96135000D01*
X170811567Y-96348486D01*
X170811570Y-96348492D01*
X170911399Y-96562578D01*
X171046894Y-96756082D01*
X171213917Y-96923105D01*
X171399595Y-97053119D01*
X171443219Y-97107696D01*
X171450412Y-97177195D01*
X171418890Y-97239549D01*
X171399595Y-97256269D01*
X171213594Y-97386508D01*
X171046505Y-97553597D01*
X170910965Y-97747169D01*
X170910964Y-97747171D01*
X170811098Y-97961335D01*
X170811094Y-97961344D01*
X170749938Y-98189586D01*
X170749936Y-98189596D01*
X170729341Y-98424999D01*
X170729341Y-98425000D01*
X167120818Y-98425000D01*
X167120552Y-98415869D01*
X167120500Y-98412262D01*
X167120500Y-94414320D01*
X167137112Y-94352322D01*
X167151250Y-94327835D01*
X167206497Y-94157803D01*
X167225185Y-93980000D01*
X167206497Y-93802197D01*
X167170961Y-93692828D01*
X167151252Y-93632170D01*
X167151249Y-93632164D01*
X167061859Y-93477335D01*
X166999638Y-93408232D01*
X166942235Y-93344478D01*
X166942232Y-93344476D01*
X166942231Y-93344475D01*
X166942230Y-93344474D01*
X166797593Y-93239388D01*
X166634267Y-93166671D01*
X166634265Y-93166670D01*
X166506594Y-93139533D01*
X166459391Y-93129500D01*
X166280609Y-93129500D01*
X166249954Y-93136015D01*
X166105733Y-93166670D01*
X166105728Y-93166672D01*
X165942408Y-93239387D01*
X165797768Y-93344475D01*
X165678140Y-93477336D01*
X165588750Y-93632164D01*
X165588747Y-93632170D01*
X165533504Y-93802192D01*
X165533503Y-93802194D01*
X165514815Y-93980000D01*
X165533503Y-94157805D01*
X165533504Y-94157807D01*
X165588747Y-94327829D01*
X165588748Y-94327830D01*
X165588750Y-94327835D01*
X165602887Y-94352322D01*
X165619500Y-94414320D01*
X165619500Y-98062769D01*
X165599815Y-98129808D01*
X165583181Y-98150450D01*
X162074358Y-101659272D01*
X162060729Y-101671051D01*
X162041469Y-101685390D01*
X162009632Y-101723331D01*
X162002346Y-101731284D01*
X161998407Y-101735224D01*
X161979176Y-101759545D01*
X161976902Y-101762337D01*
X161928694Y-101819790D01*
X161924729Y-101825819D01*
X161924682Y-101825788D01*
X161920630Y-101832147D01*
X161920679Y-101832177D01*
X161916889Y-101838321D01*
X161885192Y-101906294D01*
X161883623Y-101909536D01*
X161849957Y-101976572D01*
X161847488Y-101983357D01*
X161847432Y-101983336D01*
X161844960Y-101990450D01*
X161845015Y-101990469D01*
X161842743Y-101997325D01*
X161827573Y-102070788D01*
X161826793Y-102074304D01*
X161809499Y-102147279D01*
X161808661Y-102154454D01*
X161808601Y-102154447D01*
X161807835Y-102161945D01*
X161807895Y-102161951D01*
X161807265Y-102169140D01*
X161809448Y-102244128D01*
X161809500Y-102247735D01*
X161809500Y-104975678D01*
X161792887Y-105037678D01*
X161778750Y-105062163D01*
X161723504Y-105232192D01*
X161723503Y-105232194D01*
X161704815Y-105410000D01*
X133074846Y-105410000D01*
X133558027Y-104926819D01*
X133619350Y-104893334D01*
X133645708Y-104890500D01*
X141808259Y-104890500D01*
X141858693Y-104901219D01*
X141975733Y-104953329D01*
X142150609Y-104990500D01*
X142150610Y-104990500D01*
X142329389Y-104990500D01*
X142329391Y-104990500D01*
X142504267Y-104953329D01*
X142667593Y-104880612D01*
X142812230Y-104775526D01*
X142812701Y-104775004D01*
X142838148Y-104746741D01*
X142931859Y-104642665D01*
X143021250Y-104487835D01*
X143076497Y-104317803D01*
X143095185Y-104140000D01*
X143076497Y-103962197D01*
X143021250Y-103792165D01*
X142931859Y-103637335D01*
X142885003Y-103585296D01*
X142812235Y-103504478D01*
X142812232Y-103504476D01*
X142812231Y-103504475D01*
X142812230Y-103504474D01*
X142667593Y-103399388D01*
X142504267Y-103326671D01*
X142504265Y-103326670D01*
X142370274Y-103298190D01*
X142329391Y-103289500D01*
X142150609Y-103289500D01*
X142119954Y-103296015D01*
X141975733Y-103326670D01*
X141858694Y-103378780D01*
X141808259Y-103389500D01*
X133347183Y-103389500D01*
X133329213Y-103388191D01*
X133305450Y-103384710D01*
X133258321Y-103388834D01*
X133256108Y-103389028D01*
X133245302Y-103389500D01*
X133239762Y-103389500D01*
X133208979Y-103393098D01*
X133205394Y-103393464D01*
X133130677Y-103400001D01*
X133123610Y-103401460D01*
X133123598Y-103401404D01*
X133116241Y-103403035D01*
X133116255Y-103403092D01*
X133109218Y-103404760D01*
X133038709Y-103430421D01*
X133035308Y-103431603D01*
X132964146Y-103455184D01*
X132957604Y-103458235D01*
X132957579Y-103458183D01*
X132950786Y-103461471D01*
X132950812Y-103461522D01*
X132944364Y-103464760D01*
X132881706Y-103505970D01*
X132878669Y-103507905D01*
X132814822Y-103547288D01*
X132809155Y-103551769D01*
X132809119Y-103551723D01*
X132803276Y-103556484D01*
X132803313Y-103556528D01*
X132797788Y-103561164D01*
X132746326Y-103615709D01*
X132743814Y-103618294D01*
X129833929Y-106528181D01*
X129772606Y-106561666D01*
X129746248Y-106564500D01*
X128066741Y-106564500D01*
X128016306Y-106553780D01*
X127899267Y-106501671D01*
X127899265Y-106501670D01*
X127771594Y-106474533D01*
X127724391Y-106464500D01*
X127545609Y-106464500D01*
X127514954Y-106471015D01*
X127370733Y-106501670D01*
X127370728Y-106501672D01*
X127207408Y-106574387D01*
X127062768Y-106679475D01*
X126943140Y-106812336D01*
X126853750Y-106967164D01*
X126853747Y-106967170D01*
X126798504Y-107137192D01*
X126798503Y-107137194D01*
X126779815Y-107315000D01*
X111625500Y-107315000D01*
X111625500Y-104140004D01*
X119579732Y-104140004D01*
X119598777Y-104394154D01*
X119627693Y-104520845D01*
X119655492Y-104642637D01*
X119748607Y-104879888D01*
X119876041Y-105100612D01*
X120034950Y-105299877D01*
X120221783Y-105473232D01*
X120432366Y-105616805D01*
X120432371Y-105616807D01*
X120432372Y-105616808D01*
X120432373Y-105616809D01*
X120554328Y-105675538D01*
X120661992Y-105727387D01*
X120661993Y-105727387D01*
X120661996Y-105727389D01*
X120905542Y-105802513D01*
X121157565Y-105840500D01*
X121412435Y-105840500D01*
X121664458Y-105802513D01*
X121908004Y-105727389D01*
X122137634Y-105616805D01*
X122348217Y-105473232D01*
X122535050Y-105299877D01*
X122693959Y-105100612D01*
X122821393Y-104879888D01*
X122914508Y-104642637D01*
X122971222Y-104394157D01*
X122990268Y-104140000D01*
X122971222Y-103885843D01*
X122914508Y-103637363D01*
X122821393Y-103400112D01*
X122693959Y-103179388D01*
X122535050Y-102980123D01*
X122348217Y-102806768D01*
X122137634Y-102663195D01*
X122137630Y-102663193D01*
X122137627Y-102663191D01*
X122137626Y-102663190D01*
X121908006Y-102552612D01*
X121908008Y-102552612D01*
X121664466Y-102477489D01*
X121664462Y-102477488D01*
X121664458Y-102477487D01*
X121543231Y-102459214D01*
X121412440Y-102439500D01*
X121412435Y-102439500D01*
X121157565Y-102439500D01*
X121157559Y-102439500D01*
X121000609Y-102463157D01*
X120905542Y-102477487D01*
X120905539Y-102477488D01*
X120905533Y-102477489D01*
X120661992Y-102552612D01*
X120432373Y-102663190D01*
X120432372Y-102663191D01*
X120221782Y-102806768D01*
X120034952Y-102980121D01*
X120034950Y-102980123D01*
X119876041Y-103179388D01*
X119748608Y-103400109D01*
X119655492Y-103637362D01*
X119655490Y-103637369D01*
X119598777Y-103885845D01*
X119579732Y-104139995D01*
X119579732Y-104140004D01*
X111625500Y-104140004D01*
X111625500Y-98425000D01*
X133264341Y-98425000D01*
X133284936Y-98660403D01*
X133284938Y-98660413D01*
X133346094Y-98888655D01*
X133346096Y-98888659D01*
X133346097Y-98888663D01*
X133368483Y-98936669D01*
X133445965Y-99102830D01*
X133445967Y-99102834D01*
X133581501Y-99296395D01*
X133581506Y-99296402D01*
X133748597Y-99463493D01*
X133748603Y-99463498D01*
X133813465Y-99508915D01*
X133928391Y-99589387D01*
X133934594Y-99593730D01*
X133978219Y-99648307D01*
X133985413Y-99717805D01*
X133953890Y-99780160D01*
X133934595Y-99796880D01*
X133748922Y-99926890D01*
X133748920Y-99926891D01*
X133581891Y-100093920D01*
X133581886Y-100093926D01*
X133446400Y-100287420D01*
X133446399Y-100287422D01*
X133346570Y-100501507D01*
X133346567Y-100501513D01*
X133289364Y-100714999D01*
X133289364Y-100715000D01*
X134186314Y-100715000D01*
X134160507Y-100755156D01*
X134120000Y-100893111D01*
X134120000Y-101036889D01*
X134160507Y-101174844D01*
X134186314Y-101215000D01*
X133289364Y-101215000D01*
X133346567Y-101428486D01*
X133346570Y-101428492D01*
X133446399Y-101642578D01*
X133581894Y-101836082D01*
X133748917Y-102003105D01*
X133942421Y-102138600D01*
X134156507Y-102238429D01*
X134156516Y-102238433D01*
X134370000Y-102295634D01*
X134370000Y-101400501D01*
X134477685Y-101449680D01*
X134584237Y-101465000D01*
X134655763Y-101465000D01*
X134762315Y-101449680D01*
X134870000Y-101400501D01*
X134870000Y-102295633D01*
X135083483Y-102238433D01*
X135083492Y-102238429D01*
X135297578Y-102138600D01*
X135491082Y-102003105D01*
X135658105Y-101836082D01*
X135793600Y-101642578D01*
X135893429Y-101428492D01*
X135893432Y-101428486D01*
X135950636Y-101215000D01*
X135053686Y-101215000D01*
X135079493Y-101174844D01*
X135120000Y-101036889D01*
X135120000Y-100893111D01*
X135079493Y-100755156D01*
X135053686Y-100715000D01*
X135950636Y-100715000D01*
X135950635Y-100714999D01*
X135893432Y-100501513D01*
X135893429Y-100501507D01*
X135793600Y-100287422D01*
X135793599Y-100287420D01*
X135658113Y-100093926D01*
X135658108Y-100093920D01*
X135491078Y-99926890D01*
X135305405Y-99796879D01*
X135261780Y-99742302D01*
X135254588Y-99672804D01*
X135286110Y-99610449D01*
X135305406Y-99593730D01*
X135311607Y-99589388D01*
X135491401Y-99463495D01*
X135658495Y-99296401D01*
X135794035Y-99102830D01*
X135893903Y-98888663D01*
X135955063Y-98660408D01*
X135971284Y-98475006D01*
X143579700Y-98475006D01*
X143598864Y-98706297D01*
X143598866Y-98706308D01*
X143655842Y-98931300D01*
X143749075Y-99143848D01*
X143876016Y-99338147D01*
X143876019Y-99338151D01*
X143876021Y-99338153D01*
X144033216Y-99508913D01*
X144033219Y-99508915D01*
X144033222Y-99508918D01*
X144216365Y-99651464D01*
X144216371Y-99651468D01*
X144216374Y-99651470D01*
X144420497Y-99761936D01*
X144534487Y-99801068D01*
X144640015Y-99837297D01*
X144640017Y-99837297D01*
X144640019Y-99837298D01*
X144868951Y-99875500D01*
X144868952Y-99875500D01*
X145101048Y-99875500D01*
X145101049Y-99875500D01*
X145329981Y-99837298D01*
X145549503Y-99761936D01*
X145753626Y-99651470D01*
X145936784Y-99508913D01*
X146093979Y-99338153D01*
X146220924Y-99143849D01*
X146314157Y-98931300D01*
X146371134Y-98706305D01*
X146373029Y-98683437D01*
X146390300Y-98475006D01*
X146979700Y-98475006D01*
X146998864Y-98706297D01*
X146998866Y-98706308D01*
X147055842Y-98931300D01*
X147149075Y-99143848D01*
X147276016Y-99338147D01*
X147276019Y-99338151D01*
X147276021Y-99338153D01*
X147433216Y-99508913D01*
X147433219Y-99508915D01*
X147433222Y-99508918D01*
X147616365Y-99651464D01*
X147616371Y-99651468D01*
X147616374Y-99651470D01*
X147820497Y-99761936D01*
X147934487Y-99801068D01*
X148040015Y-99837297D01*
X148040017Y-99837297D01*
X148040019Y-99837298D01*
X148268951Y-99875500D01*
X148268952Y-99875500D01*
X148501048Y-99875500D01*
X148501049Y-99875500D01*
X148729981Y-99837298D01*
X148949503Y-99761936D01*
X149153626Y-99651470D01*
X149336784Y-99508913D01*
X149493979Y-99338153D01*
X149620924Y-99143849D01*
X149714157Y-98931300D01*
X149771134Y-98706305D01*
X149773029Y-98683437D01*
X149790300Y-98475006D01*
X156279700Y-98475006D01*
X156298864Y-98706297D01*
X156298866Y-98706308D01*
X156355842Y-98931300D01*
X156449075Y-99143848D01*
X156576016Y-99338147D01*
X156576019Y-99338151D01*
X156576021Y-99338153D01*
X156733216Y-99508913D01*
X156733219Y-99508915D01*
X156733222Y-99508918D01*
X156916365Y-99651464D01*
X156916371Y-99651468D01*
X156916374Y-99651470D01*
X157120497Y-99761936D01*
X157234487Y-99801068D01*
X157340015Y-99837297D01*
X157340017Y-99837297D01*
X157340019Y-99837298D01*
X157568951Y-99875500D01*
X157568952Y-99875500D01*
X157801048Y-99875500D01*
X157801049Y-99875500D01*
X158029981Y-99837298D01*
X158249503Y-99761936D01*
X158453626Y-99651470D01*
X158636784Y-99508913D01*
X158793979Y-99338153D01*
X158920924Y-99143849D01*
X159014157Y-98931300D01*
X159071134Y-98706305D01*
X159073029Y-98683437D01*
X159090300Y-98475006D01*
X159679700Y-98475006D01*
X159698864Y-98706297D01*
X159698866Y-98706308D01*
X159755842Y-98931300D01*
X159849075Y-99143848D01*
X159976016Y-99338147D01*
X159976019Y-99338151D01*
X159976021Y-99338153D01*
X160133216Y-99508913D01*
X160133219Y-99508915D01*
X160133222Y-99508918D01*
X160316365Y-99651464D01*
X160316371Y-99651468D01*
X160316374Y-99651470D01*
X160520497Y-99761936D01*
X160634487Y-99801068D01*
X160740015Y-99837297D01*
X160740017Y-99837297D01*
X160740019Y-99837298D01*
X160968951Y-99875500D01*
X160968952Y-99875500D01*
X161201048Y-99875500D01*
X161201049Y-99875500D01*
X161429981Y-99837298D01*
X161649503Y-99761936D01*
X161853626Y-99651470D01*
X162036784Y-99508913D01*
X162193979Y-99338153D01*
X162320924Y-99143849D01*
X162414157Y-98931300D01*
X162471134Y-98706305D01*
X162473029Y-98683437D01*
X162490300Y-98475006D01*
X162490300Y-98474993D01*
X162471135Y-98243702D01*
X162471133Y-98243691D01*
X162414157Y-98018699D01*
X162320924Y-97806151D01*
X162193983Y-97611852D01*
X162193980Y-97611849D01*
X162193979Y-97611847D01*
X162036784Y-97441087D01*
X162036779Y-97441083D01*
X162036777Y-97441081D01*
X161853634Y-97298535D01*
X161853628Y-97298531D01*
X161649504Y-97188064D01*
X161649495Y-97188061D01*
X161429984Y-97112702D01*
X161258282Y-97084050D01*
X161201049Y-97074500D01*
X160968951Y-97074500D01*
X160923164Y-97082140D01*
X160740015Y-97112702D01*
X160520504Y-97188061D01*
X160520495Y-97188064D01*
X160316371Y-97298531D01*
X160316365Y-97298535D01*
X160133222Y-97441081D01*
X160133219Y-97441084D01*
X159976016Y-97611852D01*
X159849075Y-97806151D01*
X159755842Y-98018699D01*
X159698866Y-98243691D01*
X159698864Y-98243702D01*
X159679700Y-98474993D01*
X159679700Y-98475006D01*
X159090300Y-98475006D01*
X159090300Y-98474993D01*
X159071135Y-98243702D01*
X159071133Y-98243691D01*
X159014157Y-98018699D01*
X158920924Y-97806151D01*
X158793983Y-97611852D01*
X158793980Y-97611849D01*
X158793979Y-97611847D01*
X158636784Y-97441087D01*
X158636779Y-97441083D01*
X158636777Y-97441081D01*
X158453634Y-97298535D01*
X158453628Y-97298531D01*
X158249504Y-97188064D01*
X158249495Y-97188061D01*
X158029984Y-97112702D01*
X157858282Y-97084050D01*
X157801049Y-97074500D01*
X157568951Y-97074500D01*
X157523164Y-97082140D01*
X157340015Y-97112702D01*
X157120504Y-97188061D01*
X157120495Y-97188064D01*
X156916371Y-97298531D01*
X156916365Y-97298535D01*
X156733222Y-97441081D01*
X156733219Y-97441084D01*
X156576016Y-97611852D01*
X156449075Y-97806151D01*
X156355842Y-98018699D01*
X156298866Y-98243691D01*
X156298864Y-98243702D01*
X156279700Y-98474993D01*
X156279700Y-98475006D01*
X149790300Y-98475006D01*
X149790300Y-98474993D01*
X149771135Y-98243702D01*
X149771133Y-98243691D01*
X149714157Y-98018699D01*
X149620924Y-97806151D01*
X149493983Y-97611852D01*
X149493980Y-97611849D01*
X149493979Y-97611847D01*
X149336784Y-97441087D01*
X149336779Y-97441083D01*
X149336777Y-97441081D01*
X149153634Y-97298535D01*
X149153628Y-97298531D01*
X148949504Y-97188064D01*
X148949495Y-97188061D01*
X148729984Y-97112702D01*
X148558282Y-97084050D01*
X148501049Y-97074500D01*
X148268951Y-97074500D01*
X148223164Y-97082140D01*
X148040015Y-97112702D01*
X147820504Y-97188061D01*
X147820495Y-97188064D01*
X147616371Y-97298531D01*
X147616365Y-97298535D01*
X147433222Y-97441081D01*
X147433219Y-97441084D01*
X147276016Y-97611852D01*
X147149075Y-97806151D01*
X147055842Y-98018699D01*
X146998866Y-98243691D01*
X146998864Y-98243702D01*
X146979700Y-98474993D01*
X146979700Y-98475006D01*
X146390300Y-98475006D01*
X146390300Y-98474993D01*
X146371135Y-98243702D01*
X146371133Y-98243691D01*
X146314157Y-98018699D01*
X146220924Y-97806151D01*
X146093983Y-97611852D01*
X146093980Y-97611849D01*
X146093979Y-97611847D01*
X145936784Y-97441087D01*
X145936779Y-97441083D01*
X145936777Y-97441081D01*
X145753634Y-97298535D01*
X145753628Y-97298531D01*
X145549504Y-97188064D01*
X145549495Y-97188061D01*
X145329984Y-97112702D01*
X145158282Y-97084050D01*
X145101049Y-97074500D01*
X144868951Y-97074500D01*
X144823164Y-97082140D01*
X144640015Y-97112702D01*
X144420504Y-97188061D01*
X144420495Y-97188064D01*
X144216371Y-97298531D01*
X144216365Y-97298535D01*
X144033222Y-97441081D01*
X144033219Y-97441084D01*
X143876016Y-97611852D01*
X143749075Y-97806151D01*
X143655842Y-98018699D01*
X143598866Y-98243691D01*
X143598864Y-98243702D01*
X143579700Y-98474993D01*
X143579700Y-98475006D01*
X135971284Y-98475006D01*
X135975659Y-98425000D01*
X135955063Y-98189592D01*
X135893903Y-97961337D01*
X135794035Y-97747171D01*
X135658495Y-97553599D01*
X135658494Y-97553597D01*
X135491402Y-97386506D01*
X135491401Y-97386505D01*
X135305405Y-97256269D01*
X135261781Y-97201692D01*
X135254588Y-97132193D01*
X135286110Y-97069839D01*
X135305405Y-97053119D01*
X135491082Y-96923105D01*
X135658105Y-96756082D01*
X135793600Y-96562578D01*
X135893429Y-96348492D01*
X135893432Y-96348486D01*
X135950636Y-96135000D01*
X135053686Y-96135000D01*
X135079493Y-96094844D01*
X135120000Y-95956889D01*
X135120000Y-95813111D01*
X135079493Y-95675156D01*
X135053686Y-95635000D01*
X135950636Y-95635000D01*
X135950635Y-95634999D01*
X135893432Y-95421513D01*
X135893429Y-95421507D01*
X135793600Y-95207422D01*
X135793599Y-95207420D01*
X135658113Y-95013926D01*
X135658108Y-95013920D01*
X135536053Y-94891865D01*
X135502568Y-94830542D01*
X135507552Y-94760850D01*
X135549424Y-94704917D01*
X135580400Y-94688002D01*
X135712331Y-94638796D01*
X135827546Y-94552546D01*
X135913796Y-94437331D01*
X135964091Y-94302483D01*
X135970500Y-94242873D01*
X135970499Y-93345000D01*
X140749815Y-93345000D01*
X140768503Y-93522805D01*
X140768504Y-93522807D01*
X140823747Y-93692829D01*
X140823750Y-93692835D01*
X140913141Y-93847665D01*
X140954812Y-93893946D01*
X141032764Y-93980521D01*
X141032767Y-93980523D01*
X141032770Y-93980526D01*
X141177407Y-94085612D01*
X141340733Y-94158329D01*
X141515609Y-94195500D01*
X141515610Y-94195500D01*
X141694389Y-94195500D01*
X141694391Y-94195500D01*
X141808788Y-94171184D01*
X141878455Y-94176500D01*
X141934189Y-94218637D01*
X141958294Y-94284217D01*
X141954775Y-94322914D01*
X141898866Y-94543691D01*
X141898864Y-94543702D01*
X141879700Y-94774993D01*
X141879700Y-94775006D01*
X141898864Y-95006297D01*
X141898866Y-95006308D01*
X141955842Y-95231300D01*
X142049075Y-95443848D01*
X142176016Y-95638147D01*
X142176019Y-95638151D01*
X142176021Y-95638153D01*
X142333216Y-95808913D01*
X142333219Y-95808915D01*
X142333222Y-95808918D01*
X142516365Y-95951464D01*
X142516371Y-95951468D01*
X142516374Y-95951470D01*
X142720497Y-96061936D01*
X142816355Y-96094844D01*
X142940015Y-96137297D01*
X142940017Y-96137297D01*
X142940019Y-96137298D01*
X143168951Y-96175500D01*
X143168952Y-96175500D01*
X143401048Y-96175500D01*
X143401049Y-96175500D01*
X143629981Y-96137298D01*
X143849503Y-96061936D01*
X144053626Y-95951470D01*
X144236784Y-95808913D01*
X144393979Y-95638153D01*
X144520924Y-95443849D01*
X144614157Y-95231300D01*
X144671134Y-95006305D01*
X144690300Y-94775006D01*
X145279700Y-94775006D01*
X145298864Y-95006297D01*
X145298866Y-95006308D01*
X145355842Y-95231300D01*
X145449075Y-95443848D01*
X145576016Y-95638147D01*
X145576019Y-95638151D01*
X145576021Y-95638153D01*
X145733216Y-95808913D01*
X145733219Y-95808915D01*
X145733222Y-95808918D01*
X145916365Y-95951464D01*
X145916371Y-95951468D01*
X145916374Y-95951470D01*
X146120497Y-96061936D01*
X146216355Y-96094844D01*
X146340015Y-96137297D01*
X146340017Y-96137297D01*
X146340019Y-96137298D01*
X146568951Y-96175500D01*
X146568952Y-96175500D01*
X146801048Y-96175500D01*
X146801049Y-96175500D01*
X147029981Y-96137298D01*
X147249503Y-96061936D01*
X147453626Y-95951470D01*
X147636784Y-95808913D01*
X147715992Y-95722870D01*
X148684500Y-95722870D01*
X148684501Y-95722876D01*
X148690908Y-95782483D01*
X148741202Y-95917328D01*
X148741206Y-95917335D01*
X148827452Y-96032544D01*
X148827455Y-96032547D01*
X148942664Y-96118793D01*
X148942671Y-96118797D01*
X149077517Y-96169091D01*
X149077516Y-96169091D01*
X149084444Y-96169835D01*
X149137127Y-96175500D01*
X151032872Y-96175499D01*
X151092483Y-96169091D01*
X151227331Y-96118796D01*
X151342546Y-96032546D01*
X151428796Y-95917331D01*
X151479091Y-95782483D01*
X151485500Y-95722873D01*
X151485499Y-93827128D01*
X151479091Y-93767517D01*
X151469233Y-93741087D01*
X151428797Y-93632671D01*
X151428793Y-93632664D01*
X151342547Y-93517455D01*
X151342544Y-93517452D01*
X151227335Y-93431206D01*
X151227328Y-93431202D01*
X151092482Y-93380908D01*
X151092483Y-93380908D01*
X151032883Y-93374501D01*
X151032881Y-93374500D01*
X151032873Y-93374500D01*
X151032864Y-93374500D01*
X149137129Y-93374500D01*
X149137123Y-93374501D01*
X149077516Y-93380908D01*
X148942671Y-93431202D01*
X148942664Y-93431206D01*
X148827455Y-93517452D01*
X148827452Y-93517455D01*
X148741206Y-93632664D01*
X148741202Y-93632671D01*
X148690908Y-93767517D01*
X148687180Y-93802197D01*
X148684501Y-93827123D01*
X148684500Y-93827135D01*
X148684500Y-95722870D01*
X147715992Y-95722870D01*
X147793979Y-95638153D01*
X147920924Y-95443849D01*
X148014157Y-95231300D01*
X148071134Y-95006305D01*
X148090300Y-94775000D01*
X148090300Y-94774993D01*
X148071135Y-94543702D01*
X148071133Y-94543691D01*
X148014157Y-94318699D01*
X147920924Y-94106151D01*
X147793983Y-93911852D01*
X147793980Y-93911849D01*
X147793979Y-93911847D01*
X147636784Y-93741087D01*
X147636779Y-93741083D01*
X147636777Y-93741081D01*
X147453634Y-93598535D01*
X147453628Y-93598531D01*
X147249504Y-93488064D01*
X147249495Y-93488061D01*
X147029984Y-93412702D01*
X146839450Y-93380908D01*
X146801049Y-93374500D01*
X146568951Y-93374500D01*
X146530550Y-93380908D01*
X146340015Y-93412702D01*
X146120504Y-93488061D01*
X146120495Y-93488064D01*
X145916371Y-93598531D01*
X145916365Y-93598535D01*
X145733222Y-93741081D01*
X145733219Y-93741084D01*
X145733216Y-93741086D01*
X145733216Y-93741087D01*
X145708886Y-93767517D01*
X145576016Y-93911852D01*
X145449075Y-94106151D01*
X145355842Y-94318699D01*
X145298866Y-94543691D01*
X145298864Y-94543702D01*
X145279700Y-94774993D01*
X145279700Y-94775006D01*
X144690300Y-94775006D01*
X144690300Y-94775000D01*
X144690300Y-94774993D01*
X144671135Y-94543702D01*
X144671133Y-94543691D01*
X144614157Y-94318699D01*
X144520924Y-94106151D01*
X144393983Y-93911852D01*
X144393980Y-93911849D01*
X144393979Y-93911847D01*
X144236784Y-93741087D01*
X144236779Y-93741083D01*
X144236777Y-93741081D01*
X144053634Y-93598535D01*
X144053628Y-93598531D01*
X143849504Y-93488064D01*
X143849495Y-93488061D01*
X143629984Y-93412702D01*
X143439450Y-93380908D01*
X143401049Y-93374500D01*
X143168951Y-93374500D01*
X143136246Y-93379957D01*
X142940013Y-93412702D01*
X142940011Y-93412703D01*
X142927151Y-93417118D01*
X142857353Y-93420266D01*
X142796932Y-93385178D01*
X142765074Y-93322995D01*
X142771892Y-93253458D01*
X142799208Y-93212158D01*
X145054549Y-90956819D01*
X145115872Y-90923334D01*
X145142230Y-90920500D01*
X150767770Y-90920500D01*
X150834809Y-90940185D01*
X150855451Y-90956819D01*
X153470106Y-93571474D01*
X153500356Y-93620837D01*
X153523747Y-93692828D01*
X153523750Y-93692835D01*
X153613141Y-93847665D01*
X153654812Y-93893946D01*
X153732764Y-93980521D01*
X153732767Y-93980523D01*
X153732770Y-93980526D01*
X153877407Y-94085612D01*
X154040733Y-94158329D01*
X154215609Y-94195500D01*
X154215610Y-94195500D01*
X154394389Y-94195500D01*
X154394391Y-94195500D01*
X154508788Y-94171184D01*
X154578455Y-94176500D01*
X154634189Y-94218637D01*
X154658294Y-94284217D01*
X154654775Y-94322914D01*
X154598866Y-94543691D01*
X154598864Y-94543702D01*
X154579700Y-94774993D01*
X154579700Y-94775006D01*
X154598864Y-95006297D01*
X154598866Y-95006308D01*
X154655842Y-95231300D01*
X154749075Y-95443848D01*
X154876016Y-95638147D01*
X154876019Y-95638151D01*
X154876021Y-95638153D01*
X155033216Y-95808913D01*
X155033219Y-95808915D01*
X155033222Y-95808918D01*
X155216365Y-95951464D01*
X155216371Y-95951468D01*
X155216374Y-95951470D01*
X155420497Y-96061936D01*
X155516355Y-96094844D01*
X155640015Y-96137297D01*
X155640017Y-96137297D01*
X155640019Y-96137298D01*
X155868951Y-96175500D01*
X155868952Y-96175500D01*
X156101048Y-96175500D01*
X156101049Y-96175500D01*
X156329981Y-96137298D01*
X156549503Y-96061936D01*
X156753626Y-95951470D01*
X156936784Y-95808913D01*
X157093979Y-95638153D01*
X157220924Y-95443849D01*
X157314157Y-95231300D01*
X157371134Y-95006305D01*
X157390300Y-94775006D01*
X157979700Y-94775006D01*
X157998864Y-95006297D01*
X157998866Y-95006308D01*
X158055842Y-95231300D01*
X158149075Y-95443848D01*
X158276016Y-95638147D01*
X158276019Y-95638151D01*
X158276021Y-95638153D01*
X158433216Y-95808913D01*
X158433219Y-95808915D01*
X158433222Y-95808918D01*
X158616365Y-95951464D01*
X158616371Y-95951468D01*
X158616374Y-95951470D01*
X158820497Y-96061936D01*
X158916355Y-96094844D01*
X159040015Y-96137297D01*
X159040017Y-96137297D01*
X159040019Y-96137298D01*
X159268951Y-96175500D01*
X159268952Y-96175500D01*
X159501048Y-96175500D01*
X159501049Y-96175500D01*
X159729981Y-96137298D01*
X159949503Y-96061936D01*
X160153626Y-95951470D01*
X160336784Y-95808913D01*
X160415992Y-95722870D01*
X161384500Y-95722870D01*
X161384501Y-95722876D01*
X161390908Y-95782483D01*
X161441202Y-95917328D01*
X161441206Y-95917335D01*
X161527452Y-96032544D01*
X161527455Y-96032547D01*
X161642664Y-96118793D01*
X161642671Y-96118797D01*
X161777517Y-96169091D01*
X161777516Y-96169091D01*
X161784444Y-96169835D01*
X161837127Y-96175500D01*
X163732872Y-96175499D01*
X163792483Y-96169091D01*
X163927331Y-96118796D01*
X164042546Y-96032546D01*
X164128796Y-95917331D01*
X164179091Y-95782483D01*
X164185500Y-95722873D01*
X164185499Y-93827128D01*
X164179091Y-93767517D01*
X164169233Y-93741087D01*
X164128797Y-93632671D01*
X164128793Y-93632664D01*
X164042547Y-93517455D01*
X164042544Y-93517452D01*
X163927335Y-93431206D01*
X163927328Y-93431202D01*
X163792482Y-93380908D01*
X163792483Y-93380908D01*
X163732883Y-93374501D01*
X163732881Y-93374500D01*
X163732873Y-93374500D01*
X163732864Y-93374500D01*
X161837129Y-93374500D01*
X161837123Y-93374501D01*
X161777516Y-93380908D01*
X161642671Y-93431202D01*
X161642664Y-93431206D01*
X161527455Y-93517452D01*
X161527452Y-93517455D01*
X161441206Y-93632664D01*
X161441202Y-93632671D01*
X161390908Y-93767517D01*
X161387180Y-93802197D01*
X161384501Y-93827123D01*
X161384500Y-93827135D01*
X161384500Y-95722870D01*
X160415992Y-95722870D01*
X160493979Y-95638153D01*
X160620924Y-95443849D01*
X160714157Y-95231300D01*
X160771134Y-95006305D01*
X160790300Y-94775000D01*
X160790300Y-94774993D01*
X160771135Y-94543702D01*
X160771133Y-94543691D01*
X160714157Y-94318699D01*
X160620924Y-94106151D01*
X160493983Y-93911852D01*
X160493980Y-93911849D01*
X160493979Y-93911847D01*
X160336784Y-93741087D01*
X160336779Y-93741083D01*
X160336777Y-93741081D01*
X160153634Y-93598535D01*
X160153628Y-93598531D01*
X159949504Y-93488064D01*
X159949495Y-93488061D01*
X159729984Y-93412702D01*
X159539450Y-93380908D01*
X159501049Y-93374500D01*
X159268951Y-93374500D01*
X159230550Y-93380908D01*
X159040015Y-93412702D01*
X158820504Y-93488061D01*
X158820495Y-93488064D01*
X158616371Y-93598531D01*
X158616365Y-93598535D01*
X158433222Y-93741081D01*
X158433219Y-93741084D01*
X158433216Y-93741086D01*
X158433216Y-93741087D01*
X158408886Y-93767517D01*
X158276016Y-93911852D01*
X158149075Y-94106151D01*
X158055842Y-94318699D01*
X157998866Y-94543691D01*
X157998864Y-94543702D01*
X157979700Y-94774993D01*
X157979700Y-94775006D01*
X157390300Y-94775006D01*
X157390300Y-94775000D01*
X157390300Y-94774993D01*
X157371135Y-94543702D01*
X157371133Y-94543691D01*
X157314157Y-94318699D01*
X157220924Y-94106151D01*
X157093983Y-93911852D01*
X157093980Y-93911849D01*
X157093979Y-93911847D01*
X156936784Y-93741087D01*
X156936779Y-93741083D01*
X156936777Y-93741081D01*
X156753634Y-93598535D01*
X156753628Y-93598531D01*
X156549504Y-93488064D01*
X156549495Y-93488061D01*
X156329984Y-93412702D01*
X156139450Y-93380908D01*
X156101049Y-93374500D01*
X155868951Y-93374500D01*
X155830550Y-93380908D01*
X155640015Y-93412702D01*
X155420504Y-93488061D01*
X155420490Y-93488067D01*
X155335474Y-93534075D01*
X155267145Y-93548670D01*
X155201773Y-93524007D01*
X155160113Y-93467916D01*
X155153136Y-93412061D01*
X155160185Y-93345000D01*
X155141497Y-93167197D01*
X155098742Y-93035611D01*
X155086252Y-92997170D01*
X155086249Y-92997164D01*
X154996859Y-92842335D01*
X154934638Y-92773232D01*
X154877235Y-92709478D01*
X154877232Y-92709476D01*
X154877231Y-92709475D01*
X154877230Y-92709474D01*
X154732593Y-92604388D01*
X154569267Y-92531671D01*
X154569265Y-92531670D01*
X154563330Y-92529028D01*
X154564108Y-92527279D01*
X154524177Y-92502809D01*
X151705729Y-89684361D01*
X151693949Y-89670730D01*
X151679610Y-89651470D01*
X151641651Y-89619619D01*
X151633686Y-89612318D01*
X151629780Y-89608411D01*
X151605443Y-89589168D01*
X151602647Y-89586890D01*
X151545214Y-89538698D01*
X151539180Y-89534729D01*
X151539212Y-89534680D01*
X151532853Y-89530628D01*
X151532822Y-89530679D01*
X151526680Y-89526891D01*
X151526678Y-89526890D01*
X151526677Y-89526889D01*
X151458688Y-89495184D01*
X151455447Y-89493615D01*
X151424530Y-89478088D01*
X151388433Y-89459960D01*
X151388431Y-89459959D01*
X151388430Y-89459959D01*
X151381645Y-89457489D01*
X151381665Y-89457433D01*
X151374549Y-89454959D01*
X151374531Y-89455015D01*
X151367674Y-89452743D01*
X151294210Y-89437573D01*
X151290693Y-89436793D01*
X151217718Y-89419499D01*
X151210547Y-89418661D01*
X151210553Y-89418601D01*
X151203055Y-89417835D01*
X151203050Y-89417895D01*
X151195860Y-89417265D01*
X151120870Y-89419448D01*
X151117263Y-89419500D01*
X144843705Y-89419500D01*
X144825735Y-89418191D01*
X144801972Y-89414710D01*
X144756826Y-89418661D01*
X144752630Y-89419028D01*
X144741824Y-89419500D01*
X144736284Y-89419500D01*
X144705501Y-89423098D01*
X144701916Y-89423464D01*
X144627199Y-89430001D01*
X144620132Y-89431460D01*
X144620120Y-89431404D01*
X144612763Y-89433035D01*
X144612777Y-89433092D01*
X144605740Y-89434760D01*
X144535231Y-89460421D01*
X144531830Y-89461603D01*
X144460668Y-89485184D01*
X144454126Y-89488235D01*
X144454101Y-89488183D01*
X144447308Y-89491471D01*
X144447334Y-89491522D01*
X144440886Y-89494760D01*
X144378228Y-89535970D01*
X144375191Y-89537905D01*
X144311344Y-89577288D01*
X144305677Y-89581769D01*
X144305641Y-89581723D01*
X144299798Y-89586484D01*
X144299835Y-89586528D01*
X144294310Y-89591164D01*
X144294304Y-89591169D01*
X144294304Y-89591170D01*
X144270733Y-89616153D01*
X144242848Y-89645709D01*
X144240336Y-89648294D01*
X141385820Y-92502810D01*
X141345894Y-92527289D01*
X141346669Y-92529029D01*
X141340736Y-92531670D01*
X141340733Y-92531671D01*
X141187542Y-92599876D01*
X141177406Y-92604389D01*
X141032768Y-92709475D01*
X140913140Y-92842336D01*
X140823750Y-92997164D01*
X140823747Y-92997170D01*
X140768504Y-93167192D01*
X140768503Y-93167194D01*
X140749815Y-93345000D01*
X135970499Y-93345000D01*
X135970499Y-92447128D01*
X135964091Y-92387517D01*
X135913796Y-92252669D01*
X135913795Y-92252668D01*
X135913793Y-92252664D01*
X135827547Y-92137455D01*
X135827544Y-92137452D01*
X135712335Y-92051206D01*
X135712328Y-92051202D01*
X135577482Y-92000908D01*
X135577483Y-92000908D01*
X135517883Y-91994501D01*
X135517881Y-91994500D01*
X135517873Y-91994500D01*
X135517864Y-91994500D01*
X133722129Y-91994500D01*
X133722123Y-91994501D01*
X133662516Y-92000908D01*
X133527671Y-92051202D01*
X133527664Y-92051206D01*
X133412455Y-92137452D01*
X133412452Y-92137455D01*
X133326206Y-92252664D01*
X133326202Y-92252671D01*
X133275908Y-92387517D01*
X133269501Y-92447116D01*
X133269501Y-92447123D01*
X133269500Y-92447135D01*
X133269500Y-94242870D01*
X133269501Y-94242876D01*
X133275908Y-94302483D01*
X133326202Y-94437328D01*
X133326206Y-94437335D01*
X133412452Y-94552544D01*
X133412455Y-94552547D01*
X133527664Y-94638793D01*
X133527671Y-94638797D01*
X133527674Y-94638798D01*
X133659598Y-94688002D01*
X133715531Y-94729873D01*
X133739949Y-94795337D01*
X133725098Y-94863610D01*
X133703947Y-94891865D01*
X133581886Y-95013926D01*
X133446400Y-95207420D01*
X133446399Y-95207422D01*
X133346570Y-95421507D01*
X133346567Y-95421513D01*
X133289364Y-95634999D01*
X133289364Y-95635000D01*
X134186314Y-95635000D01*
X134160507Y-95675156D01*
X134120000Y-95813111D01*
X134120000Y-95956889D01*
X134160507Y-96094844D01*
X134186314Y-96135000D01*
X133289364Y-96135000D01*
X133346567Y-96348486D01*
X133346570Y-96348492D01*
X133446399Y-96562578D01*
X133581894Y-96756082D01*
X133748917Y-96923105D01*
X133934595Y-97053119D01*
X133978219Y-97107696D01*
X133985412Y-97177195D01*
X133953890Y-97239549D01*
X133934595Y-97256269D01*
X133748594Y-97386508D01*
X133581505Y-97553597D01*
X133445965Y-97747169D01*
X133445964Y-97747171D01*
X133346098Y-97961335D01*
X133346094Y-97961344D01*
X133284938Y-98189586D01*
X133284936Y-98189596D01*
X133264341Y-98424999D01*
X133264341Y-98425000D01*
X111625500Y-98425000D01*
X111625500Y-91440004D01*
X119579732Y-91440004D01*
X119598777Y-91694154D01*
X119627693Y-91820845D01*
X119655492Y-91942637D01*
X119748607Y-92179888D01*
X119876041Y-92400612D01*
X120034950Y-92599877D01*
X120221783Y-92773232D01*
X120432366Y-92916805D01*
X120432371Y-92916807D01*
X120432372Y-92916808D01*
X120432373Y-92916809D01*
X120554328Y-92975538D01*
X120661992Y-93027387D01*
X120661993Y-93027387D01*
X120661996Y-93027389D01*
X120905542Y-93102513D01*
X121157565Y-93140500D01*
X121412435Y-93140500D01*
X121664458Y-93102513D01*
X121908004Y-93027389D01*
X122137634Y-92916805D01*
X122348217Y-92773232D01*
X122535050Y-92599877D01*
X122693959Y-92400612D01*
X122821393Y-92179888D01*
X122914508Y-91942637D01*
X122971222Y-91694157D01*
X122990268Y-91440000D01*
X122971222Y-91185843D01*
X122914508Y-90937363D01*
X122821393Y-90700112D01*
X122693959Y-90479388D01*
X122535050Y-90280123D01*
X122348217Y-90106768D01*
X122137634Y-89963195D01*
X122137630Y-89963193D01*
X122137627Y-89963191D01*
X122137626Y-89963190D01*
X121908006Y-89852612D01*
X121908008Y-89852612D01*
X121664466Y-89777489D01*
X121664462Y-89777488D01*
X121664458Y-89777487D01*
X121543231Y-89759214D01*
X121412440Y-89739500D01*
X121412435Y-89739500D01*
X121157565Y-89739500D01*
X121157559Y-89739500D01*
X121000609Y-89763157D01*
X120905542Y-89777487D01*
X120905539Y-89777488D01*
X120905533Y-89777489D01*
X120661992Y-89852612D01*
X120432373Y-89963190D01*
X120432372Y-89963191D01*
X120221782Y-90106768D01*
X120034952Y-90280121D01*
X120034950Y-90280123D01*
X119876041Y-90479388D01*
X119748608Y-90700109D01*
X119655492Y-90937362D01*
X119655490Y-90937369D01*
X119598777Y-91185845D01*
X119579732Y-91439995D01*
X119579732Y-91440004D01*
X111625500Y-91440004D01*
X111625500Y-89192870D01*
X125107000Y-89192870D01*
X125107001Y-89192876D01*
X125113408Y-89252483D01*
X125163702Y-89387328D01*
X125163706Y-89387335D01*
X125249952Y-89502544D01*
X125249955Y-89502547D01*
X125365164Y-89588793D01*
X125365171Y-89588797D01*
X125500017Y-89639091D01*
X125500016Y-89639091D01*
X125506944Y-89639835D01*
X125559627Y-89645500D01*
X127655372Y-89645499D01*
X127714983Y-89639091D01*
X127849831Y-89588796D01*
X127965046Y-89502546D01*
X128051296Y-89387331D01*
X128101591Y-89252483D01*
X128108000Y-89192873D01*
X128108000Y-89192870D01*
X178447000Y-89192870D01*
X178447001Y-89192876D01*
X178453408Y-89252483D01*
X178503702Y-89387328D01*
X178503706Y-89387335D01*
X178589952Y-89502544D01*
X178589955Y-89502547D01*
X178705164Y-89588793D01*
X178705171Y-89588797D01*
X178840017Y-89639091D01*
X178840016Y-89639091D01*
X178846944Y-89639835D01*
X178899627Y-89645500D01*
X180995372Y-89645499D01*
X181054983Y-89639091D01*
X181189831Y-89588796D01*
X181305046Y-89502546D01*
X181391296Y-89387331D01*
X181441591Y-89252483D01*
X181448000Y-89192873D01*
X181447999Y-87097128D01*
X181441591Y-87037517D01*
X181433331Y-87015372D01*
X181391297Y-86902671D01*
X181391293Y-86902664D01*
X181305047Y-86787455D01*
X181305044Y-86787452D01*
X181189835Y-86701206D01*
X181189828Y-86701202D01*
X181054982Y-86650908D01*
X181054983Y-86650908D01*
X180995383Y-86644501D01*
X180995381Y-86644500D01*
X180995373Y-86644500D01*
X180995364Y-86644500D01*
X178899629Y-86644500D01*
X178899623Y-86644501D01*
X178840016Y-86650908D01*
X178705171Y-86701202D01*
X178705164Y-86701206D01*
X178589955Y-86787452D01*
X178589952Y-86787455D01*
X178503706Y-86902664D01*
X178503702Y-86902671D01*
X178453408Y-87037517D01*
X178447001Y-87097116D01*
X178447001Y-87097123D01*
X178447000Y-87097135D01*
X178447000Y-89192870D01*
X128108000Y-89192870D01*
X128107999Y-87097128D01*
X128101591Y-87037517D01*
X128093331Y-87015372D01*
X128093330Y-87015370D01*
X132604500Y-87015370D01*
X132604501Y-87015376D01*
X132610908Y-87074983D01*
X132661202Y-87209828D01*
X132661206Y-87209835D01*
X132747452Y-87325044D01*
X132747455Y-87325047D01*
X132862664Y-87411293D01*
X132862671Y-87411297D01*
X132997517Y-87461591D01*
X132997516Y-87461591D01*
X133004444Y-87462335D01*
X133057127Y-87468000D01*
X135152872Y-87467999D01*
X135212483Y-87461591D01*
X135347331Y-87411296D01*
X135462546Y-87325046D01*
X135548796Y-87209831D01*
X135599091Y-87074983D01*
X135605500Y-87015373D01*
X135605500Y-86217500D01*
X147620960Y-86217500D01*
X147681411Y-86456216D01*
X147781267Y-86683867D01*
X147917232Y-86891978D01*
X148085592Y-87074864D01*
X148085602Y-87074873D01*
X148281762Y-87227551D01*
X148281771Y-87227557D01*
X148500385Y-87345864D01*
X148500396Y-87345869D01*
X148735507Y-87426583D01*
X148854999Y-87446523D01*
X148855000Y-87446522D01*
X148855000Y-86403001D01*
X148962685Y-86452180D01*
X149069237Y-86467500D01*
X149140763Y-86467500D01*
X149247315Y-86452180D01*
X149355000Y-86403001D01*
X149355000Y-87446523D01*
X149474492Y-87426583D01*
X149709603Y-87345869D01*
X149709614Y-87345864D01*
X149928228Y-87227557D01*
X149928237Y-87227551D01*
X150124397Y-87074873D01*
X150124407Y-87074864D01*
X150179176Y-87015370D01*
X155584500Y-87015370D01*
X155584501Y-87015376D01*
X155590908Y-87074983D01*
X155641202Y-87209828D01*
X155641206Y-87209835D01*
X155727452Y-87325044D01*
X155727455Y-87325047D01*
X155842664Y-87411293D01*
X155842671Y-87411297D01*
X155977517Y-87461591D01*
X155977516Y-87461591D01*
X155984444Y-87462335D01*
X156037127Y-87468000D01*
X158132872Y-87467999D01*
X158192483Y-87461591D01*
X158327331Y-87411296D01*
X158442546Y-87325046D01*
X158528796Y-87209831D01*
X158579091Y-87074983D01*
X158585500Y-87015373D01*
X158585500Y-86217500D01*
X170600960Y-86217500D01*
X170661411Y-86456216D01*
X170761267Y-86683867D01*
X170897232Y-86891978D01*
X171065592Y-87074864D01*
X171065602Y-87074873D01*
X171261762Y-87227551D01*
X171261771Y-87227557D01*
X171480385Y-87345864D01*
X171480396Y-87345869D01*
X171715507Y-87426583D01*
X171834999Y-87446523D01*
X171835000Y-87446522D01*
X171835000Y-86403001D01*
X171942685Y-86452180D01*
X172049237Y-86467500D01*
X172120763Y-86467500D01*
X172227315Y-86452180D01*
X172335000Y-86403001D01*
X172335000Y-87446523D01*
X172454492Y-87426583D01*
X172689603Y-87345869D01*
X172689614Y-87345864D01*
X172908228Y-87227557D01*
X172908237Y-87227551D01*
X173104397Y-87074873D01*
X173104407Y-87074864D01*
X173272767Y-86891978D01*
X173408732Y-86683867D01*
X173508588Y-86456216D01*
X173569040Y-86217500D01*
X172518686Y-86217500D01*
X172544493Y-86177344D01*
X172585000Y-86039389D01*
X172585000Y-85895611D01*
X172544493Y-85757656D01*
X172518686Y-85717500D01*
X173569040Y-85717500D01*
X173508588Y-85478783D01*
X173408732Y-85251132D01*
X173272767Y-85043021D01*
X173104407Y-84860135D01*
X173104397Y-84860126D01*
X172908237Y-84707448D01*
X172908228Y-84707442D01*
X172689614Y-84589135D01*
X172689603Y-84589130D01*
X172454492Y-84508416D01*
X172335000Y-84488476D01*
X172335000Y-85531998D01*
X172227315Y-85482820D01*
X172120763Y-85467500D01*
X172049237Y-85467500D01*
X171942685Y-85482820D01*
X171835000Y-85531998D01*
X171835000Y-84488476D01*
X171834999Y-84488476D01*
X171715507Y-84508416D01*
X171480396Y-84589130D01*
X171480385Y-84589135D01*
X171261771Y-84707442D01*
X171261762Y-84707448D01*
X171065602Y-84860126D01*
X171065592Y-84860135D01*
X170897232Y-85043021D01*
X170761267Y-85251132D01*
X170661411Y-85478783D01*
X170600960Y-85717500D01*
X171651314Y-85717500D01*
X171625507Y-85757656D01*
X171585000Y-85895611D01*
X171585000Y-86039389D01*
X171625507Y-86177344D01*
X171651314Y-86217500D01*
X170600960Y-86217500D01*
X158585500Y-86217500D01*
X158585499Y-84919628D01*
X158579091Y-84860017D01*
X158528796Y-84725169D01*
X158528795Y-84725168D01*
X158528793Y-84725164D01*
X158442547Y-84609955D01*
X158442544Y-84609952D01*
X158327335Y-84523706D01*
X158327328Y-84523702D01*
X158192482Y-84473408D01*
X158192483Y-84473408D01*
X158132883Y-84467001D01*
X158132881Y-84467000D01*
X158132873Y-84467000D01*
X158132864Y-84467000D01*
X156037129Y-84467000D01*
X156037123Y-84467001D01*
X155977516Y-84473408D01*
X155842671Y-84523702D01*
X155842664Y-84523706D01*
X155727455Y-84609952D01*
X155727452Y-84609955D01*
X155641206Y-84725164D01*
X155641202Y-84725171D01*
X155590908Y-84860017D01*
X155584501Y-84919616D01*
X155584501Y-84919623D01*
X155584500Y-84919635D01*
X155584500Y-87015370D01*
X150179176Y-87015370D01*
X150292767Y-86891978D01*
X150428732Y-86683867D01*
X150528588Y-86456216D01*
X150589040Y-86217500D01*
X149538686Y-86217500D01*
X149564493Y-86177344D01*
X149605000Y-86039389D01*
X149605000Y-85895611D01*
X149564493Y-85757656D01*
X149538686Y-85717500D01*
X150589040Y-85717500D01*
X150528588Y-85478783D01*
X150428732Y-85251132D01*
X150292767Y-85043021D01*
X150124407Y-84860135D01*
X150124397Y-84860126D01*
X149928237Y-84707448D01*
X149928228Y-84707442D01*
X149709614Y-84589135D01*
X149709603Y-84589130D01*
X149474492Y-84508416D01*
X149355000Y-84488476D01*
X149355000Y-85531998D01*
X149247315Y-85482820D01*
X149140763Y-85467500D01*
X149069237Y-85467500D01*
X148962685Y-85482820D01*
X148855000Y-85531998D01*
X148855000Y-84488476D01*
X148854999Y-84488476D01*
X148735507Y-84508416D01*
X148500396Y-84589130D01*
X148500385Y-84589135D01*
X148281771Y-84707442D01*
X148281762Y-84707448D01*
X148085602Y-84860126D01*
X148085592Y-84860135D01*
X147917232Y-85043021D01*
X147781267Y-85251132D01*
X147681411Y-85478783D01*
X147620960Y-85717500D01*
X148671314Y-85717500D01*
X148645507Y-85757656D01*
X148605000Y-85895611D01*
X148605000Y-86039389D01*
X148645507Y-86177344D01*
X148671314Y-86217500D01*
X147620960Y-86217500D01*
X135605500Y-86217500D01*
X135605499Y-84919628D01*
X135599091Y-84860017D01*
X135548796Y-84725169D01*
X135548795Y-84725168D01*
X135548793Y-84725164D01*
X135462547Y-84609955D01*
X135462544Y-84609952D01*
X135347335Y-84523706D01*
X135347328Y-84523702D01*
X135212482Y-84473408D01*
X135212483Y-84473408D01*
X135152883Y-84467001D01*
X135152881Y-84467000D01*
X135152873Y-84467000D01*
X135152864Y-84467000D01*
X133057129Y-84467000D01*
X133057123Y-84467001D01*
X132997516Y-84473408D01*
X132862671Y-84523702D01*
X132862664Y-84523706D01*
X132747455Y-84609952D01*
X132747452Y-84609955D01*
X132661206Y-84725164D01*
X132661202Y-84725171D01*
X132610908Y-84860017D01*
X132604501Y-84919616D01*
X132604501Y-84919623D01*
X132604500Y-84919635D01*
X132604500Y-87015370D01*
X128093330Y-87015370D01*
X128051297Y-86902671D01*
X128051293Y-86902664D01*
X127965047Y-86787455D01*
X127965044Y-86787452D01*
X127849835Y-86701206D01*
X127849828Y-86701202D01*
X127714982Y-86650908D01*
X127714983Y-86650908D01*
X127655383Y-86644501D01*
X127655381Y-86644500D01*
X127655373Y-86644500D01*
X127655364Y-86644500D01*
X125559629Y-86644500D01*
X125559623Y-86644501D01*
X125500016Y-86650908D01*
X125365171Y-86701202D01*
X125365164Y-86701206D01*
X125249955Y-86787452D01*
X125249952Y-86787455D01*
X125163706Y-86902664D01*
X125163702Y-86902671D01*
X125113408Y-87037517D01*
X125107001Y-87097116D01*
X125107001Y-87097123D01*
X125107000Y-87097135D01*
X125107000Y-89192870D01*
X111625500Y-89192870D01*
X111625500Y-79395370D01*
X132604500Y-79395370D01*
X132604501Y-79395376D01*
X132610908Y-79454983D01*
X132661202Y-79589828D01*
X132661206Y-79589835D01*
X132747452Y-79705044D01*
X132747455Y-79705047D01*
X132862664Y-79791293D01*
X132862671Y-79791297D01*
X132997517Y-79841591D01*
X132997516Y-79841591D01*
X133004444Y-79842335D01*
X133057127Y-79848000D01*
X135152872Y-79847999D01*
X135212483Y-79841591D01*
X135347331Y-79791296D01*
X135462546Y-79705046D01*
X135548796Y-79589831D01*
X135599091Y-79454983D01*
X135605500Y-79395373D01*
X135605500Y-78597500D01*
X147620960Y-78597500D01*
X147681411Y-78836216D01*
X147781267Y-79063867D01*
X147917232Y-79271978D01*
X148085592Y-79454864D01*
X148085602Y-79454873D01*
X148281762Y-79607551D01*
X148281771Y-79607557D01*
X148500385Y-79725864D01*
X148500396Y-79725869D01*
X148735507Y-79806583D01*
X148854999Y-79826523D01*
X148855000Y-79826522D01*
X148855000Y-78783001D01*
X148962685Y-78832180D01*
X149069237Y-78847500D01*
X149140763Y-78847500D01*
X149247315Y-78832180D01*
X149355000Y-78783001D01*
X149355000Y-79826523D01*
X149474492Y-79806583D01*
X149709603Y-79725869D01*
X149709614Y-79725864D01*
X149928228Y-79607557D01*
X149928237Y-79607551D01*
X150124397Y-79454873D01*
X150124407Y-79454864D01*
X150179176Y-79395370D01*
X155464500Y-79395370D01*
X155464501Y-79395376D01*
X155470908Y-79454983D01*
X155521202Y-79589828D01*
X155521206Y-79589835D01*
X155607452Y-79705044D01*
X155607455Y-79705047D01*
X155722664Y-79791293D01*
X155722671Y-79791297D01*
X155857517Y-79841591D01*
X155857516Y-79841591D01*
X155864444Y-79842335D01*
X155917127Y-79848000D01*
X158012872Y-79847999D01*
X158072483Y-79841591D01*
X158207331Y-79791296D01*
X158322546Y-79705046D01*
X158408796Y-79589831D01*
X158459091Y-79454983D01*
X158465500Y-79395373D01*
X158465500Y-78597500D01*
X170480960Y-78597500D01*
X170541411Y-78836216D01*
X170641267Y-79063867D01*
X170777232Y-79271978D01*
X170945592Y-79454864D01*
X170945602Y-79454873D01*
X171141762Y-79607551D01*
X171141771Y-79607557D01*
X171360385Y-79725864D01*
X171360396Y-79725869D01*
X171595507Y-79806583D01*
X171714999Y-79826523D01*
X171715000Y-79826522D01*
X171715000Y-78783001D01*
X171822685Y-78832180D01*
X171929237Y-78847500D01*
X172000763Y-78847500D01*
X172107315Y-78832180D01*
X172215000Y-78783001D01*
X172215000Y-79826523D01*
X172334492Y-79806583D01*
X172569603Y-79725869D01*
X172569614Y-79725864D01*
X172788228Y-79607557D01*
X172788237Y-79607551D01*
X172984397Y-79454873D01*
X172984407Y-79454864D01*
X173152767Y-79271978D01*
X173288732Y-79063867D01*
X173388588Y-78836216D01*
X173449040Y-78597500D01*
X172398686Y-78597500D01*
X172424493Y-78557344D01*
X172465000Y-78419389D01*
X172465000Y-78275611D01*
X172424493Y-78137656D01*
X172398686Y-78097500D01*
X173449040Y-78097500D01*
X173388588Y-77858783D01*
X173288732Y-77631132D01*
X173152767Y-77423021D01*
X172984407Y-77240135D01*
X172984397Y-77240126D01*
X172788237Y-77087448D01*
X172788228Y-77087442D01*
X172569614Y-76969135D01*
X172569603Y-76969130D01*
X172334492Y-76888416D01*
X172215000Y-76868476D01*
X172215000Y-77911998D01*
X172107315Y-77862820D01*
X172000763Y-77847500D01*
X171929237Y-77847500D01*
X171822685Y-77862820D01*
X171715000Y-77911998D01*
X171715000Y-76868476D01*
X171714999Y-76868476D01*
X171595507Y-76888416D01*
X171360396Y-76969130D01*
X171360385Y-76969135D01*
X171141771Y-77087442D01*
X171141762Y-77087448D01*
X170945602Y-77240126D01*
X170945592Y-77240135D01*
X170777232Y-77423021D01*
X170641267Y-77631132D01*
X170541411Y-77858783D01*
X170480960Y-78097500D01*
X171531314Y-78097500D01*
X171505507Y-78137656D01*
X171465000Y-78275611D01*
X171465000Y-78419389D01*
X171505507Y-78557344D01*
X171531314Y-78597500D01*
X170480960Y-78597500D01*
X158465500Y-78597500D01*
X158465499Y-77299628D01*
X158459091Y-77240017D01*
X158408796Y-77105169D01*
X158408795Y-77105168D01*
X158408793Y-77105164D01*
X158322547Y-76989955D01*
X158322544Y-76989952D01*
X158207335Y-76903706D01*
X158207328Y-76903702D01*
X158072482Y-76853408D01*
X158072483Y-76853408D01*
X158012883Y-76847001D01*
X158012881Y-76847000D01*
X158012873Y-76847000D01*
X158012864Y-76847000D01*
X155917129Y-76847000D01*
X155917123Y-76847001D01*
X155857516Y-76853408D01*
X155722671Y-76903702D01*
X155722664Y-76903706D01*
X155607455Y-76989952D01*
X155607452Y-76989955D01*
X155521206Y-77105164D01*
X155521202Y-77105171D01*
X155470908Y-77240017D01*
X155464501Y-77299616D01*
X155464501Y-77299623D01*
X155464500Y-77299635D01*
X155464500Y-79395370D01*
X150179176Y-79395370D01*
X150292767Y-79271978D01*
X150428732Y-79063867D01*
X150528588Y-78836216D01*
X150589040Y-78597500D01*
X149538686Y-78597500D01*
X149564493Y-78557344D01*
X149605000Y-78419389D01*
X149605000Y-78275611D01*
X149564493Y-78137656D01*
X149538686Y-78097500D01*
X150589040Y-78097500D01*
X150528588Y-77858783D01*
X150428732Y-77631132D01*
X150292767Y-77423021D01*
X150124407Y-77240135D01*
X150124397Y-77240126D01*
X149928237Y-77087448D01*
X149928228Y-77087442D01*
X149709614Y-76969135D01*
X149709603Y-76969130D01*
X149474492Y-76888416D01*
X149355000Y-76868476D01*
X149355000Y-77911998D01*
X149247315Y-77862820D01*
X149140763Y-77847500D01*
X149069237Y-77847500D01*
X148962685Y-77862820D01*
X148855000Y-77911998D01*
X148855000Y-76868476D01*
X148854999Y-76868476D01*
X148735507Y-76888416D01*
X148500396Y-76969130D01*
X148500385Y-76969135D01*
X148281771Y-77087442D01*
X148281762Y-77087448D01*
X148085602Y-77240126D01*
X148085592Y-77240135D01*
X147917232Y-77423021D01*
X147781267Y-77631132D01*
X147681411Y-77858783D01*
X147620960Y-78097500D01*
X148671314Y-78097500D01*
X148645507Y-78137656D01*
X148605000Y-78275611D01*
X148605000Y-78419389D01*
X148645507Y-78557344D01*
X148671314Y-78597500D01*
X147620960Y-78597500D01*
X135605500Y-78597500D01*
X135605499Y-77299628D01*
X135599091Y-77240017D01*
X135548796Y-77105169D01*
X135548795Y-77105168D01*
X135548793Y-77105164D01*
X135462547Y-76989955D01*
X135462544Y-76989952D01*
X135347335Y-76903706D01*
X135347328Y-76903702D01*
X135212482Y-76853408D01*
X135212483Y-76853408D01*
X135152883Y-76847001D01*
X135152881Y-76847000D01*
X135152873Y-76847000D01*
X135152864Y-76847000D01*
X133057129Y-76847000D01*
X133057123Y-76847001D01*
X132997516Y-76853408D01*
X132862671Y-76903702D01*
X132862664Y-76903706D01*
X132747455Y-76989952D01*
X132747452Y-76989955D01*
X132661206Y-77105164D01*
X132661202Y-77105171D01*
X132610908Y-77240017D01*
X132604501Y-77299616D01*
X132604501Y-77299623D01*
X132604500Y-77299635D01*
X132604500Y-79395370D01*
X111625500Y-79395370D01*
X111625500Y-73395000D01*
X125123460Y-73395000D01*
X125183911Y-73633716D01*
X125283767Y-73861367D01*
X125419732Y-74069478D01*
X125588092Y-74252364D01*
X125588102Y-74252373D01*
X125784262Y-74405051D01*
X125784271Y-74405057D01*
X126002885Y-74523364D01*
X126002896Y-74523369D01*
X126238007Y-74604083D01*
X126357499Y-74624023D01*
X126357500Y-74624022D01*
X126357500Y-73580501D01*
X126465185Y-73629680D01*
X126571737Y-73645000D01*
X126643263Y-73645000D01*
X126749815Y-73629680D01*
X126857500Y-73580501D01*
X126857500Y-74624023D01*
X126976992Y-74604083D01*
X127212103Y-74523369D01*
X127212114Y-74523364D01*
X127430728Y-74405057D01*
X127430737Y-74405051D01*
X127572130Y-74295000D01*
X134399815Y-74295000D01*
X134418503Y-74472805D01*
X134418504Y-74472807D01*
X134473747Y-74642829D01*
X134473750Y-74642835D01*
X134563141Y-74797665D01*
X134604812Y-74843946D01*
X134682764Y-74930521D01*
X134682767Y-74930523D01*
X134682770Y-74930526D01*
X134827407Y-75035612D01*
X134990733Y-75108329D01*
X135165609Y-75145500D01*
X135165610Y-75145500D01*
X135344389Y-75145500D01*
X135344391Y-75145500D01*
X135519267Y-75108329D01*
X135636306Y-75056219D01*
X135686741Y-75045500D01*
X142811295Y-75045500D01*
X142829265Y-75046809D01*
X142853023Y-75050289D01*
X142902369Y-75045971D01*
X142913176Y-75045500D01*
X142918704Y-75045500D01*
X142918709Y-75045500D01*
X142949556Y-75041893D01*
X142953030Y-75041539D01*
X143027797Y-75034999D01*
X143027805Y-75034996D01*
X143034866Y-75033539D01*
X143034878Y-75033598D01*
X143042243Y-75031965D01*
X143042229Y-75031906D01*
X143049249Y-75030241D01*
X143049255Y-75030241D01*
X143119779Y-75004572D01*
X143123117Y-75003412D01*
X143194334Y-74979814D01*
X143194342Y-74979808D01*
X143200882Y-74976760D01*
X143200908Y-74976816D01*
X143207690Y-74973532D01*
X143207663Y-74973478D01*
X143214113Y-74970238D01*
X143214117Y-74970237D01*
X143276837Y-74928984D01*
X143279732Y-74927140D01*
X143343656Y-74887712D01*
X143343662Y-74887705D01*
X143349325Y-74883229D01*
X143349362Y-74883277D01*
X143355204Y-74878518D01*
X143355164Y-74878471D01*
X143360686Y-74873835D01*
X143360696Y-74873830D01*
X143412185Y-74819253D01*
X143414632Y-74816734D01*
X144836366Y-73395000D01*
X178463460Y-73395000D01*
X178523911Y-73633716D01*
X178623767Y-73861367D01*
X178759732Y-74069478D01*
X178928092Y-74252364D01*
X178928102Y-74252373D01*
X179124262Y-74405051D01*
X179124271Y-74405057D01*
X179342885Y-74523364D01*
X179342896Y-74523369D01*
X179578007Y-74604083D01*
X179697499Y-74624023D01*
X179697500Y-74624022D01*
X179697500Y-73580501D01*
X179805185Y-73629680D01*
X179911737Y-73645000D01*
X179983263Y-73645000D01*
X180089815Y-73629680D01*
X180197500Y-73580501D01*
X180197500Y-74624023D01*
X180316992Y-74604083D01*
X180552103Y-74523369D01*
X180552114Y-74523364D01*
X180770728Y-74405057D01*
X180770737Y-74405051D01*
X180966897Y-74252373D01*
X180966907Y-74252364D01*
X181135267Y-74069478D01*
X181271232Y-73861367D01*
X181371088Y-73633716D01*
X181431540Y-73395000D01*
X180381186Y-73395000D01*
X180406993Y-73354844D01*
X180447500Y-73216889D01*
X180447500Y-73073111D01*
X180406993Y-72935156D01*
X180381186Y-72895000D01*
X181431540Y-72895000D01*
X181371088Y-72656283D01*
X181271232Y-72428632D01*
X181135267Y-72220521D01*
X180966907Y-72037635D01*
X180966897Y-72037626D01*
X180770737Y-71884948D01*
X180770728Y-71884942D01*
X180552114Y-71766635D01*
X180552103Y-71766630D01*
X180316992Y-71685916D01*
X180197500Y-71665976D01*
X180197500Y-72709498D01*
X180089815Y-72660320D01*
X179983263Y-72645000D01*
X179911737Y-72645000D01*
X179805185Y-72660320D01*
X179697500Y-72709498D01*
X179697500Y-71665976D01*
X179697499Y-71665976D01*
X179578007Y-71685916D01*
X179342896Y-71766630D01*
X179342885Y-71766635D01*
X179124271Y-71884942D01*
X179124262Y-71884948D01*
X178928102Y-72037626D01*
X178928092Y-72037635D01*
X178759732Y-72220521D01*
X178623767Y-72428632D01*
X178523911Y-72656283D01*
X178463460Y-72895000D01*
X179513814Y-72895000D01*
X179488007Y-72935156D01*
X179447500Y-73073111D01*
X179447500Y-73216889D01*
X179488007Y-73354844D01*
X179513814Y-73395000D01*
X178463460Y-73395000D01*
X144836366Y-73395000D01*
X149499548Y-68731819D01*
X149560871Y-68698334D01*
X149587229Y-68695500D01*
X152774237Y-68695500D01*
X152841276Y-68715185D01*
X152887031Y-68767989D01*
X152896975Y-68837147D01*
X152890153Y-68860787D01*
X152890758Y-68860984D01*
X152833504Y-69037192D01*
X152833503Y-69037194D01*
X152814815Y-69215000D01*
X152833503Y-69392805D01*
X152833504Y-69392807D01*
X152888747Y-69562829D01*
X152888750Y-69562835D01*
X152978141Y-69717665D01*
X153019812Y-69763946D01*
X153097764Y-69850521D01*
X153097767Y-69850523D01*
X153097770Y-69850526D01*
X153242407Y-69955612D01*
X153405733Y-70028329D01*
X153405734Y-70028329D01*
X153411670Y-70030972D01*
X153410890Y-70032723D01*
X153450822Y-70057190D01*
X154364267Y-70970634D01*
X154376048Y-70984266D01*
X154390390Y-71003530D01*
X154428343Y-71035376D01*
X154436319Y-71042686D01*
X154440219Y-71046587D01*
X154464544Y-71065821D01*
X154467340Y-71068099D01*
X154495062Y-71091360D01*
X154524786Y-71116302D01*
X154524794Y-71116306D01*
X154530824Y-71120273D01*
X154530790Y-71120323D01*
X154537137Y-71124366D01*
X154537169Y-71124316D01*
X154543321Y-71128110D01*
X154611294Y-71159806D01*
X154614510Y-71161362D01*
X154681567Y-71195040D01*
X154681576Y-71195042D01*
X154688355Y-71197510D01*
X154688334Y-71197567D01*
X154695451Y-71200040D01*
X154695470Y-71199984D01*
X154702324Y-71202255D01*
X154702325Y-71202255D01*
X154702327Y-71202256D01*
X154775848Y-71217436D01*
X154779209Y-71218181D01*
X154852279Y-71235500D01*
X154852285Y-71235500D01*
X154859452Y-71236338D01*
X154859445Y-71236397D01*
X154866946Y-71237163D01*
X154866952Y-71237104D01*
X154874141Y-71237733D01*
X154874143Y-71237732D01*
X154874144Y-71237733D01*
X154949111Y-71235552D01*
X154952717Y-71235500D01*
X169975501Y-71235500D01*
X170042540Y-71255185D01*
X170088295Y-71307989D01*
X170099501Y-71359500D01*
X170099501Y-71382876D01*
X170105908Y-71442483D01*
X170156202Y-71577328D01*
X170156206Y-71577335D01*
X170242452Y-71692544D01*
X170242455Y-71692547D01*
X170357664Y-71778793D01*
X170357671Y-71778797D01*
X170492517Y-71829091D01*
X170492516Y-71829091D01*
X170499444Y-71829835D01*
X170552127Y-71835500D01*
X172347872Y-71835499D01*
X172407483Y-71829091D01*
X172542331Y-71778796D01*
X172657546Y-71692546D01*
X172743796Y-71577331D01*
X172794091Y-71442483D01*
X172800500Y-71382873D01*
X172800499Y-69587128D01*
X172794091Y-69527517D01*
X172743847Y-69392807D01*
X172743797Y-69392671D01*
X172743793Y-69392664D01*
X172657547Y-69277455D01*
X172657544Y-69277452D01*
X172542335Y-69191206D01*
X172542328Y-69191202D01*
X172410917Y-69142189D01*
X172354983Y-69100318D01*
X172330566Y-69034853D01*
X172345418Y-68966580D01*
X172366563Y-68938332D01*
X172488495Y-68816401D01*
X172624035Y-68622830D01*
X172723903Y-68408663D01*
X172785063Y-68180408D01*
X172805659Y-67945000D01*
X172785063Y-67709592D01*
X172723903Y-67481337D01*
X172624035Y-67267171D01*
X172623204Y-67265983D01*
X172488494Y-67073597D01*
X172321402Y-66906506D01*
X172321395Y-66906501D01*
X172127834Y-66770967D01*
X172127830Y-66770965D01*
X172085980Y-66751450D01*
X171913663Y-66671097D01*
X171913659Y-66671096D01*
X171913655Y-66671094D01*
X171685413Y-66609938D01*
X171685403Y-66609936D01*
X171450001Y-66589341D01*
X171449999Y-66589341D01*
X171214596Y-66609936D01*
X171214586Y-66609938D01*
X170986344Y-66671094D01*
X170986335Y-66671098D01*
X170772171Y-66770964D01*
X170772169Y-66770965D01*
X170578597Y-66906505D01*
X170411506Y-67073596D01*
X170363874Y-67141623D01*
X170309297Y-67185248D01*
X170262299Y-67194500D01*
X163183021Y-67194500D01*
X163115982Y-67174815D01*
X163070227Y-67122011D01*
X163060283Y-67052853D01*
X163089308Y-66989297D01*
X163104356Y-66974647D01*
X163142194Y-66943592D01*
X163181410Y-66911410D01*
X163312685Y-66751450D01*
X163410232Y-66568954D01*
X163470300Y-66370934D01*
X163485500Y-66216608D01*
X163485500Y-65513392D01*
X163481498Y-65472763D01*
X183565787Y-65472763D01*
X183595413Y-65742013D01*
X183595415Y-65742024D01*
X183663926Y-66004082D01*
X183663928Y-66004088D01*
X183769870Y-66253390D01*
X183841998Y-66371575D01*
X183910979Y-66484605D01*
X183910986Y-66484615D01*
X184084253Y-66692819D01*
X184084259Y-66692824D01*
X184189240Y-66786887D01*
X184285998Y-66873582D01*
X184511910Y-67023044D01*
X184757176Y-67138020D01*
X184757183Y-67138022D01*
X184757185Y-67138023D01*
X185016557Y-67216057D01*
X185016564Y-67216058D01*
X185016569Y-67216060D01*
X185284561Y-67255500D01*
X185284566Y-67255500D01*
X185487629Y-67255500D01*
X185487631Y-67255500D01*
X185487636Y-67255499D01*
X185487648Y-67255499D01*
X185525191Y-67252750D01*
X185690156Y-67240677D01*
X185828947Y-67209760D01*
X185954546Y-67181782D01*
X185954548Y-67181781D01*
X185954553Y-67181780D01*
X186207558Y-67085014D01*
X186443777Y-66952441D01*
X186658177Y-66786888D01*
X186846186Y-66591881D01*
X187003799Y-66371579D01*
X187083477Y-66216604D01*
X187127649Y-66130690D01*
X187127651Y-66130684D01*
X187127656Y-66130675D01*
X187215118Y-65874305D01*
X187264319Y-65607933D01*
X187274212Y-65337235D01*
X187244586Y-65067982D01*
X187176072Y-64805912D01*
X187070130Y-64556610D01*
X186929018Y-64325390D01*
X186839747Y-64218119D01*
X186755746Y-64117180D01*
X186755740Y-64117175D01*
X186554002Y-63936418D01*
X186328092Y-63786957D01*
X186328090Y-63786956D01*
X186082824Y-63671980D01*
X186082819Y-63671978D01*
X186082814Y-63671976D01*
X185823442Y-63593942D01*
X185823428Y-63593939D01*
X185707791Y-63576921D01*
X185555439Y-63554500D01*
X185352369Y-63554500D01*
X185352351Y-63554500D01*
X185149844Y-63569323D01*
X185149831Y-63569325D01*
X184885453Y-63628217D01*
X184885446Y-63628220D01*
X184632439Y-63724987D01*
X184396226Y-63857557D01*
X184181822Y-64023112D01*
X183993822Y-64218109D01*
X183993816Y-64218116D01*
X183836202Y-64438419D01*
X183836199Y-64438424D01*
X183712350Y-64679309D01*
X183712343Y-64679327D01*
X183624884Y-64935685D01*
X183624882Y-64935695D01*
X183583259Y-65161043D01*
X183575681Y-65202068D01*
X183575680Y-65202075D01*
X183565787Y-65472763D01*
X163481498Y-65472763D01*
X163470300Y-65359066D01*
X163410232Y-65161046D01*
X163312685Y-64978550D01*
X163260702Y-64915209D01*
X163181410Y-64818589D01*
X163021452Y-64687317D01*
X163021453Y-64687317D01*
X163021450Y-64687315D01*
X162838954Y-64589768D01*
X162640934Y-64529700D01*
X162640932Y-64529699D01*
X162640934Y-64529699D01*
X162435000Y-64509417D01*
X162229067Y-64529699D01*
X162031043Y-64589769D01*
X161920898Y-64648643D01*
X161848550Y-64687315D01*
X161848548Y-64687316D01*
X161848547Y-64687317D01*
X161688589Y-64818589D01*
X161557317Y-64978547D01*
X161459769Y-65161043D01*
X161399699Y-65359067D01*
X161384500Y-65513395D01*
X161384500Y-66216604D01*
X161399699Y-66370932D01*
X161399896Y-66371580D01*
X161459768Y-66568954D01*
X161557315Y-66751450D01*
X161586398Y-66786888D01*
X161688590Y-66911410D01*
X161765644Y-66974647D01*
X161804978Y-67032392D01*
X161806849Y-67102237D01*
X161770662Y-67162005D01*
X161707906Y-67192721D01*
X161686979Y-67194500D01*
X154543021Y-67194500D01*
X154475982Y-67174815D01*
X154430227Y-67122011D01*
X154420283Y-67052853D01*
X154449308Y-66989297D01*
X154464356Y-66974647D01*
X154502194Y-66943592D01*
X154541410Y-66911410D01*
X154672685Y-66751450D01*
X154770232Y-66568954D01*
X154830300Y-66370934D01*
X154845500Y-66216608D01*
X154845500Y-65513392D01*
X154830300Y-65359066D01*
X154770232Y-65161046D01*
X154672685Y-64978550D01*
X154620702Y-64915209D01*
X154541410Y-64818589D01*
X154381452Y-64687317D01*
X154381453Y-64687317D01*
X154381450Y-64687315D01*
X154198954Y-64589768D01*
X154000934Y-64529700D01*
X154000932Y-64529699D01*
X154000934Y-64529699D01*
X153795000Y-64509417D01*
X153589067Y-64529699D01*
X153391043Y-64589769D01*
X153280898Y-64648643D01*
X153208550Y-64687315D01*
X153208548Y-64687316D01*
X153208547Y-64687317D01*
X153048589Y-64818589D01*
X152917317Y-64978547D01*
X152819769Y-65161043D01*
X152759699Y-65359067D01*
X152744500Y-65513395D01*
X152744500Y-66216604D01*
X152759699Y-66370932D01*
X152759896Y-66371580D01*
X152819768Y-66568954D01*
X152917315Y-66751450D01*
X152946398Y-66786888D01*
X153048590Y-66911410D01*
X153125644Y-66974647D01*
X153164978Y-67032392D01*
X153166849Y-67102237D01*
X153130662Y-67162005D01*
X153067906Y-67192721D01*
X153046979Y-67194500D01*
X149288705Y-67194500D01*
X149270735Y-67193191D01*
X149246972Y-67189710D01*
X149200642Y-67193764D01*
X149197632Y-67194028D01*
X149186826Y-67194500D01*
X149181282Y-67194500D01*
X149150488Y-67198099D01*
X149146905Y-67198465D01*
X149072200Y-67205001D01*
X149065134Y-67206461D01*
X149065122Y-67206404D01*
X149057753Y-67208038D01*
X149057767Y-67208095D01*
X149050739Y-67209760D01*
X148980271Y-67235408D01*
X148976867Y-67236591D01*
X148905668Y-67260184D01*
X148899122Y-67263237D01*
X148899097Y-67263185D01*
X148892308Y-67266471D01*
X148892334Y-67266522D01*
X148885886Y-67269760D01*
X148823228Y-67310970D01*
X148820191Y-67312905D01*
X148756344Y-67352288D01*
X148750677Y-67356769D01*
X148750641Y-67356723D01*
X148744798Y-67361484D01*
X148744835Y-67361528D01*
X148739310Y-67366164D01*
X148687848Y-67420709D01*
X148685336Y-67423294D01*
X142600451Y-73508181D01*
X142539128Y-73541666D01*
X142512770Y-73544500D01*
X135686741Y-73544500D01*
X135636306Y-73533780D01*
X135519267Y-73481671D01*
X135519265Y-73481670D01*
X135391594Y-73454533D01*
X135344391Y-73444500D01*
X135165609Y-73444500D01*
X135134954Y-73451015D01*
X134990733Y-73481670D01*
X134990728Y-73481672D01*
X134827408Y-73554387D01*
X134682768Y-73659475D01*
X134563140Y-73792336D01*
X134473750Y-73947164D01*
X134473747Y-73947170D01*
X134418504Y-74117192D01*
X134418503Y-74117194D01*
X134399815Y-74295000D01*
X127572130Y-74295000D01*
X127626897Y-74252373D01*
X127626907Y-74252364D01*
X127795267Y-74069478D01*
X127931232Y-73861367D01*
X128031088Y-73633716D01*
X128091540Y-73395000D01*
X127041186Y-73395000D01*
X127066993Y-73354844D01*
X127107500Y-73216889D01*
X127107500Y-73073111D01*
X127066993Y-72935156D01*
X127041186Y-72895000D01*
X128091540Y-72895000D01*
X128031088Y-72656283D01*
X127931232Y-72428632D01*
X127795267Y-72220521D01*
X127626907Y-72037635D01*
X127626897Y-72037626D01*
X127430737Y-71884948D01*
X127430728Y-71884942D01*
X127212114Y-71766635D01*
X127212103Y-71766630D01*
X126976992Y-71685916D01*
X126857500Y-71665976D01*
X126857500Y-72709498D01*
X126749815Y-72660320D01*
X126643263Y-72645000D01*
X126571737Y-72645000D01*
X126465185Y-72660320D01*
X126357500Y-72709498D01*
X126357500Y-71665976D01*
X126357499Y-71665976D01*
X126238007Y-71685916D01*
X126002896Y-71766630D01*
X126002885Y-71766635D01*
X125784271Y-71884942D01*
X125784262Y-71884948D01*
X125588102Y-72037626D01*
X125588092Y-72037635D01*
X125419732Y-72220521D01*
X125283767Y-72428632D01*
X125183911Y-72656283D01*
X125123460Y-72895000D01*
X126173814Y-72895000D01*
X126148007Y-72935156D01*
X126107500Y-73073111D01*
X126107500Y-73216889D01*
X126148007Y-73354844D01*
X126173814Y-73395000D01*
X125123460Y-73395000D01*
X111625500Y-73395000D01*
X111625500Y-69215004D01*
X126564732Y-69215004D01*
X126583777Y-69469154D01*
X126639847Y-69714815D01*
X126640492Y-69717637D01*
X126733607Y-69954888D01*
X126861041Y-70175612D01*
X127019950Y-70374877D01*
X127206783Y-70548232D01*
X127417366Y-70691805D01*
X127417371Y-70691807D01*
X127417372Y-70691808D01*
X127417373Y-70691809D01*
X127539328Y-70750538D01*
X127646992Y-70802387D01*
X127646993Y-70802387D01*
X127646996Y-70802389D01*
X127890542Y-70877513D01*
X128142565Y-70915500D01*
X128397435Y-70915500D01*
X128649458Y-70877513D01*
X128893004Y-70802389D01*
X129122634Y-70691805D01*
X129333217Y-70548232D01*
X129520050Y-70374877D01*
X129678959Y-70175612D01*
X129806393Y-69954888D01*
X129899508Y-69717637D01*
X129956222Y-69469157D01*
X129975268Y-69215004D01*
X139264732Y-69215004D01*
X139283777Y-69469154D01*
X139339847Y-69714815D01*
X139340492Y-69717637D01*
X139433607Y-69954888D01*
X139561041Y-70175612D01*
X139719950Y-70374877D01*
X139906783Y-70548232D01*
X140117366Y-70691805D01*
X140117371Y-70691807D01*
X140117372Y-70691808D01*
X140117373Y-70691809D01*
X140239328Y-70750538D01*
X140346992Y-70802387D01*
X140346993Y-70802387D01*
X140346996Y-70802389D01*
X140590542Y-70877513D01*
X140842565Y-70915500D01*
X141097435Y-70915500D01*
X141349458Y-70877513D01*
X141593004Y-70802389D01*
X141822634Y-70691805D01*
X142033217Y-70548232D01*
X142220050Y-70374877D01*
X142378959Y-70175612D01*
X142506393Y-69954888D01*
X142599508Y-69717637D01*
X142656222Y-69469157D01*
X142675268Y-69215000D01*
X142669235Y-69134500D01*
X142656222Y-68960845D01*
X142651082Y-68938326D01*
X142599508Y-68712363D01*
X142506393Y-68475112D01*
X142378959Y-68254388D01*
X142220050Y-68055123D01*
X142033217Y-67881768D01*
X141822634Y-67738195D01*
X141822630Y-67738193D01*
X141822627Y-67738191D01*
X141822626Y-67738190D01*
X141593006Y-67627612D01*
X141593008Y-67627612D01*
X141349466Y-67552489D01*
X141349462Y-67552488D01*
X141349458Y-67552487D01*
X141228231Y-67534214D01*
X141097440Y-67514500D01*
X141097435Y-67514500D01*
X140842565Y-67514500D01*
X140842559Y-67514500D01*
X140685609Y-67538157D01*
X140590542Y-67552487D01*
X140590539Y-67552488D01*
X140590533Y-67552489D01*
X140346992Y-67627612D01*
X140117373Y-67738190D01*
X140117372Y-67738191D01*
X139906782Y-67881768D01*
X139719952Y-68055121D01*
X139719950Y-68055123D01*
X139561041Y-68254388D01*
X139433608Y-68475109D01*
X139340492Y-68712362D01*
X139340490Y-68712369D01*
X139283777Y-68960845D01*
X139264732Y-69214995D01*
X139264732Y-69215004D01*
X129975268Y-69215004D01*
X129975268Y-69215000D01*
X129969235Y-69134500D01*
X129956222Y-68960845D01*
X129951082Y-68938326D01*
X129899508Y-68712363D01*
X129806393Y-68475112D01*
X129678959Y-68254388D01*
X129520050Y-68055123D01*
X129333217Y-67881768D01*
X129122634Y-67738195D01*
X129122630Y-67738193D01*
X129122627Y-67738191D01*
X129122626Y-67738190D01*
X128893006Y-67627612D01*
X128893008Y-67627612D01*
X128649466Y-67552489D01*
X128649462Y-67552488D01*
X128649458Y-67552487D01*
X128528231Y-67534214D01*
X128397440Y-67514500D01*
X128397435Y-67514500D01*
X128142565Y-67514500D01*
X128142559Y-67514500D01*
X127985609Y-67538157D01*
X127890542Y-67552487D01*
X127890539Y-67552488D01*
X127890533Y-67552489D01*
X127646992Y-67627612D01*
X127417373Y-67738190D01*
X127417372Y-67738191D01*
X127206782Y-67881768D01*
X127019952Y-68055121D01*
X127019950Y-68055123D01*
X126861041Y-68254388D01*
X126733608Y-68475109D01*
X126640492Y-68712362D01*
X126640490Y-68712369D01*
X126583777Y-68960845D01*
X126564732Y-69214995D01*
X126564732Y-69215004D01*
X111625500Y-69215004D01*
X111625500Y-65472763D01*
X114350787Y-65472763D01*
X114380413Y-65742013D01*
X114380415Y-65742024D01*
X114448926Y-66004082D01*
X114448928Y-66004088D01*
X114554870Y-66253390D01*
X114626998Y-66371575D01*
X114695979Y-66484605D01*
X114695986Y-66484615D01*
X114869253Y-66692819D01*
X114869259Y-66692824D01*
X114974240Y-66786887D01*
X115070998Y-66873582D01*
X115296910Y-67023044D01*
X115542176Y-67138020D01*
X115542183Y-67138022D01*
X115542185Y-67138023D01*
X115801557Y-67216057D01*
X115801564Y-67216058D01*
X115801569Y-67216060D01*
X116069561Y-67255500D01*
X116069566Y-67255500D01*
X116272629Y-67255500D01*
X116272631Y-67255500D01*
X116272636Y-67255499D01*
X116272648Y-67255499D01*
X116310191Y-67252750D01*
X116475156Y-67240677D01*
X116613947Y-67209760D01*
X116739546Y-67181782D01*
X116739548Y-67181781D01*
X116739553Y-67181780D01*
X116992558Y-67085014D01*
X117228777Y-66952441D01*
X117443177Y-66786888D01*
X117631186Y-66591881D01*
X117788799Y-66371579D01*
X117868477Y-66216604D01*
X117912649Y-66130690D01*
X117912651Y-66130684D01*
X117912656Y-66130675D01*
X118000118Y-65874305D01*
X118049319Y-65607933D01*
X118059212Y-65337235D01*
X118029586Y-65067982D01*
X117961072Y-64805912D01*
X117855130Y-64556610D01*
X117714018Y-64325390D01*
X117624747Y-64218119D01*
X117540746Y-64117180D01*
X117540740Y-64117175D01*
X117339002Y-63936418D01*
X117113092Y-63786957D01*
X117113090Y-63786956D01*
X116867824Y-63671980D01*
X116867819Y-63671978D01*
X116867814Y-63671976D01*
X116608442Y-63593942D01*
X116608428Y-63593939D01*
X116492791Y-63576921D01*
X116340439Y-63554500D01*
X116137369Y-63554500D01*
X116137351Y-63554500D01*
X115934844Y-63569323D01*
X115934831Y-63569325D01*
X115670453Y-63628217D01*
X115670446Y-63628220D01*
X115417439Y-63724987D01*
X115181226Y-63857557D01*
X114966822Y-64023112D01*
X114778822Y-64218109D01*
X114778816Y-64218116D01*
X114621202Y-64438419D01*
X114621199Y-64438424D01*
X114497350Y-64679309D01*
X114497343Y-64679327D01*
X114409884Y-64935685D01*
X114409882Y-64935695D01*
X114368259Y-65161043D01*
X114360681Y-65202068D01*
X114360680Y-65202075D01*
X114350787Y-65472763D01*
X111625500Y-65472763D01*
X111625500Y-62230004D01*
X122119732Y-62230004D01*
X122138777Y-62484154D01*
X122138778Y-62484157D01*
X122195492Y-62732637D01*
X122288607Y-62969888D01*
X122416041Y-63190612D01*
X122574950Y-63389877D01*
X122761783Y-63563232D01*
X122972366Y-63706805D01*
X122972371Y-63706807D01*
X122972372Y-63706808D01*
X122972373Y-63706809D01*
X123094328Y-63765538D01*
X123201992Y-63817387D01*
X123201993Y-63817387D01*
X123201996Y-63817389D01*
X123445542Y-63892513D01*
X123697565Y-63930500D01*
X123952435Y-63930500D01*
X124204458Y-63892513D01*
X124448004Y-63817389D01*
X124677634Y-63706805D01*
X124888217Y-63563232D01*
X125075050Y-63389877D01*
X125233959Y-63190612D01*
X125361393Y-62969888D01*
X125454508Y-62732637D01*
X125511222Y-62484157D01*
X125530268Y-62230004D01*
X134819732Y-62230004D01*
X134838777Y-62484154D01*
X134838778Y-62484157D01*
X134895492Y-62732637D01*
X134988607Y-62969888D01*
X135116041Y-63190612D01*
X135274950Y-63389877D01*
X135461783Y-63563232D01*
X135672366Y-63706805D01*
X135672371Y-63706807D01*
X135672372Y-63706808D01*
X135672373Y-63706809D01*
X135794328Y-63765538D01*
X135901992Y-63817387D01*
X135901993Y-63817387D01*
X135901996Y-63817389D01*
X136145542Y-63892513D01*
X136397565Y-63930500D01*
X136652435Y-63930500D01*
X136904458Y-63892513D01*
X137148004Y-63817389D01*
X137377634Y-63706805D01*
X137588217Y-63563232D01*
X137775050Y-63389877D01*
X137933959Y-63190612D01*
X138061393Y-62969888D01*
X138154508Y-62732637D01*
X138211222Y-62484157D01*
X138216284Y-62416604D01*
X152744500Y-62416604D01*
X152759699Y-62570932D01*
X152759700Y-62570934D01*
X152819768Y-62768954D01*
X152917315Y-62951450D01*
X152917317Y-62951452D01*
X153048589Y-63111410D01*
X153145097Y-63190611D01*
X153208550Y-63242685D01*
X153391046Y-63340232D01*
X153589066Y-63400300D01*
X153589065Y-63400300D01*
X153607529Y-63402118D01*
X153795000Y-63420583D01*
X154000934Y-63400300D01*
X154198954Y-63340232D01*
X154381450Y-63242685D01*
X154541410Y-63111410D01*
X154672685Y-62951450D01*
X154770232Y-62768954D01*
X154830300Y-62570934D01*
X154845500Y-62416608D01*
X154845500Y-62416604D01*
X161384500Y-62416604D01*
X161399699Y-62570932D01*
X161399700Y-62570934D01*
X161459768Y-62768954D01*
X161557315Y-62951450D01*
X161557317Y-62951452D01*
X161688589Y-63111410D01*
X161785097Y-63190611D01*
X161848550Y-63242685D01*
X162031046Y-63340232D01*
X162229066Y-63400300D01*
X162229065Y-63400300D01*
X162247529Y-63402118D01*
X162435000Y-63420583D01*
X162640934Y-63400300D01*
X162838954Y-63340232D01*
X163021450Y-63242685D01*
X163181410Y-63111410D01*
X163312685Y-62951450D01*
X163410232Y-62768954D01*
X163470300Y-62570934D01*
X163485500Y-62416608D01*
X163485500Y-61713392D01*
X163470300Y-61559066D01*
X163410232Y-61361046D01*
X163312685Y-61178550D01*
X163223702Y-61070123D01*
X163181410Y-61018589D01*
X163063677Y-60921969D01*
X163021450Y-60887315D01*
X162838954Y-60789768D01*
X162640934Y-60729700D01*
X162640932Y-60729699D01*
X162640934Y-60729699D01*
X162435000Y-60709417D01*
X162229067Y-60729699D01*
X162031043Y-60789769D01*
X161920898Y-60848643D01*
X161848550Y-60887315D01*
X161848548Y-60887316D01*
X161848547Y-60887317D01*
X161688589Y-61018589D01*
X161557317Y-61178547D01*
X161459769Y-61361043D01*
X161399699Y-61559067D01*
X161384500Y-61713395D01*
X161384500Y-62416604D01*
X154845500Y-62416604D01*
X154845500Y-61713392D01*
X154830300Y-61559066D01*
X154770232Y-61361046D01*
X154672685Y-61178550D01*
X154583702Y-61070123D01*
X154541410Y-61018589D01*
X154423677Y-60921969D01*
X154381450Y-60887315D01*
X154198954Y-60789768D01*
X154000934Y-60729700D01*
X154000932Y-60729699D01*
X154000934Y-60729699D01*
X153795000Y-60709417D01*
X153589067Y-60729699D01*
X153391043Y-60789769D01*
X153280898Y-60848643D01*
X153208550Y-60887315D01*
X153208548Y-60887316D01*
X153208547Y-60887317D01*
X153048589Y-61018589D01*
X152917317Y-61178547D01*
X152819769Y-61361043D01*
X152759699Y-61559067D01*
X152744500Y-61713395D01*
X152744500Y-62416604D01*
X138216284Y-62416604D01*
X138230268Y-62230000D01*
X138211222Y-61975843D01*
X138154508Y-61727363D01*
X138061393Y-61490112D01*
X137933959Y-61269388D01*
X137775050Y-61070123D01*
X137588217Y-60896768D01*
X137377634Y-60753195D01*
X137377630Y-60753193D01*
X137377627Y-60753191D01*
X137377626Y-60753190D01*
X137148006Y-60642612D01*
X137148008Y-60642612D01*
X136904466Y-60567489D01*
X136904462Y-60567488D01*
X136904458Y-60567487D01*
X136783231Y-60549214D01*
X136652440Y-60529500D01*
X136652435Y-60529500D01*
X136397565Y-60529500D01*
X136397559Y-60529500D01*
X136240609Y-60553157D01*
X136145542Y-60567487D01*
X136145539Y-60567488D01*
X136145533Y-60567489D01*
X135901992Y-60642612D01*
X135672373Y-60753190D01*
X135672372Y-60753191D01*
X135461782Y-60896768D01*
X135274952Y-61070121D01*
X135274950Y-61070123D01*
X135116041Y-61269388D01*
X134988608Y-61490109D01*
X134895492Y-61727362D01*
X134895490Y-61727369D01*
X134838777Y-61975845D01*
X134819732Y-62229995D01*
X134819732Y-62230004D01*
X125530268Y-62230004D01*
X125530268Y-62230000D01*
X125511222Y-61975843D01*
X125454508Y-61727363D01*
X125361393Y-61490112D01*
X125233959Y-61269388D01*
X125075050Y-61070123D01*
X124888217Y-60896768D01*
X124677634Y-60753195D01*
X124677630Y-60753193D01*
X124677627Y-60753191D01*
X124677626Y-60753190D01*
X124448006Y-60642612D01*
X124448008Y-60642612D01*
X124204466Y-60567489D01*
X124204462Y-60567488D01*
X124204458Y-60567487D01*
X124083231Y-60549214D01*
X123952440Y-60529500D01*
X123952435Y-60529500D01*
X123697565Y-60529500D01*
X123697559Y-60529500D01*
X123540609Y-60553157D01*
X123445542Y-60567487D01*
X123445539Y-60567488D01*
X123445533Y-60567489D01*
X123201992Y-60642612D01*
X122972373Y-60753190D01*
X122972372Y-60753191D01*
X122761782Y-60896768D01*
X122574952Y-61070121D01*
X122574950Y-61070123D01*
X122416041Y-61269388D01*
X122288608Y-61490109D01*
X122195492Y-61727362D01*
X122195490Y-61727369D01*
X122138777Y-61975845D01*
X122119732Y-62229995D01*
X122119732Y-62230004D01*
X111625500Y-62230004D01*
X111625500Y-59044500D01*
X111645185Y-58977461D01*
X111697989Y-58931706D01*
X111749500Y-58920500D01*
X191780500Y-58920500D01*
X191847539Y-58940185D01*
G37*
%TD.AperFunction*%
%TD*%
M02*
